%TF.GenerationSoftware,KiCad,Pcbnew,9.0.5*%
%TF.CreationDate,2025-12-31T07:17:13+07:00*%
%TF.ProjectId,board2v2,626f6172-6432-4763-922e-6b696361645f,rev?*%
%TF.SameCoordinates,Original*%
%TF.FileFunction,Legend,Top*%
%TF.FilePolarity,Positive*%
%FSLAX46Y46*%
G04 Gerber Fmt 4.6, Leading zero omitted, Abs format (unit mm)*
G04 Created by KiCad (PCBNEW 9.0.5) date 2025-12-31 07:17:13*
%MOMM*%
%LPD*%
G01*
G04 APERTURE LIST*
%ADD10C,0.150000*%
%ADD11C,0.203200*%
%ADD12C,0.100000*%
%ADD13C,0.500000*%
%ADD14C,0.254000*%
%ADD15C,1.000000*%
%ADD16C,0.120000*%
%ADD17C,0.152400*%
%ADD18C,0.406400*%
%ADD19C,0.127000*%
%ADD20C,0.304800*%
%ADD21C,0.350000*%
G04 APERTURE END LIST*
D10*
X178021776Y-60467619D02*
X179049871Y-60467619D01*
X179049871Y-60467619D02*
X179170823Y-60407142D01*
X179170823Y-60407142D02*
X179231300Y-60346666D01*
X179231300Y-60346666D02*
X179291776Y-60225714D01*
X179291776Y-60225714D02*
X179291776Y-59983809D01*
X179291776Y-59983809D02*
X179231300Y-59862857D01*
X179231300Y-59862857D02*
X179170823Y-59802380D01*
X179170823Y-59802380D02*
X179049871Y-59741904D01*
X179049871Y-59741904D02*
X178021776Y-59741904D01*
X178445109Y-58592857D02*
X179291776Y-58592857D01*
X177961300Y-58895238D02*
X178868442Y-59197619D01*
X178868442Y-59197619D02*
X178868442Y-58411428D01*
D11*
X168121812Y-75327057D02*
X168934612Y-75327057D01*
X168934612Y-75327057D02*
X168354040Y-75597991D01*
X168354040Y-75597991D02*
X168934612Y-75868924D01*
X168934612Y-75868924D02*
X168121812Y-75868924D01*
X168121812Y-76255971D02*
X168934612Y-76255971D01*
X168160517Y-76604315D02*
X168121812Y-76720429D01*
X168121812Y-76720429D02*
X168121812Y-76913953D01*
X168121812Y-76913953D02*
X168160517Y-76991362D01*
X168160517Y-76991362D02*
X168199221Y-77030067D01*
X168199221Y-77030067D02*
X168276631Y-77068772D01*
X168276631Y-77068772D02*
X168354040Y-77068772D01*
X168354040Y-77068772D02*
X168431450Y-77030067D01*
X168431450Y-77030067D02*
X168470155Y-76991362D01*
X168470155Y-76991362D02*
X168508859Y-76913953D01*
X168508859Y-76913953D02*
X168547564Y-76759134D01*
X168547564Y-76759134D02*
X168586269Y-76681724D01*
X168586269Y-76681724D02*
X168624974Y-76643019D01*
X168624974Y-76643019D02*
X168702383Y-76604315D01*
X168702383Y-76604315D02*
X168779793Y-76604315D01*
X168779793Y-76604315D02*
X168857202Y-76643019D01*
X168857202Y-76643019D02*
X168895907Y-76681724D01*
X168895907Y-76681724D02*
X168934612Y-76759134D01*
X168934612Y-76759134D02*
X168934612Y-76952657D01*
X168934612Y-76952657D02*
X168895907Y-77068772D01*
X168934612Y-77571933D02*
X168934612Y-77726752D01*
X168934612Y-77726752D02*
X168895907Y-77804162D01*
X168895907Y-77804162D02*
X168818497Y-77881571D01*
X168818497Y-77881571D02*
X168663678Y-77920276D01*
X168663678Y-77920276D02*
X168392745Y-77920276D01*
X168392745Y-77920276D02*
X168237926Y-77881571D01*
X168237926Y-77881571D02*
X168160517Y-77804162D01*
X168160517Y-77804162D02*
X168121812Y-77726752D01*
X168121812Y-77726752D02*
X168121812Y-77571933D01*
X168121812Y-77571933D02*
X168160517Y-77494524D01*
X168160517Y-77494524D02*
X168237926Y-77417114D01*
X168237926Y-77417114D02*
X168392745Y-77378410D01*
X168392745Y-77378410D02*
X168663678Y-77378410D01*
X168663678Y-77378410D02*
X168818497Y-77417114D01*
X168818497Y-77417114D02*
X168895907Y-77494524D01*
X168895907Y-77494524D02*
X168934612Y-77571933D01*
X176595907Y-42498110D02*
X176634612Y-42420700D01*
X176634612Y-42420700D02*
X176634612Y-42304586D01*
X176634612Y-42304586D02*
X176595907Y-42188472D01*
X176595907Y-42188472D02*
X176518497Y-42111062D01*
X176518497Y-42111062D02*
X176441088Y-42072357D01*
X176441088Y-42072357D02*
X176286269Y-42033653D01*
X176286269Y-42033653D02*
X176170155Y-42033653D01*
X176170155Y-42033653D02*
X176015336Y-42072357D01*
X176015336Y-42072357D02*
X175937926Y-42111062D01*
X175937926Y-42111062D02*
X175860517Y-42188472D01*
X175860517Y-42188472D02*
X175821812Y-42304586D01*
X175821812Y-42304586D02*
X175821812Y-42381995D01*
X175821812Y-42381995D02*
X175860517Y-42498110D01*
X175860517Y-42498110D02*
X175899221Y-42536814D01*
X175899221Y-42536814D02*
X176170155Y-42536814D01*
X176170155Y-42536814D02*
X176170155Y-42381995D01*
X175821812Y-42885157D02*
X176634612Y-42885157D01*
X176634612Y-42885157D02*
X175821812Y-43349614D01*
X175821812Y-43349614D02*
X176634612Y-43349614D01*
X175821812Y-43736662D02*
X176634612Y-43736662D01*
X176634612Y-43736662D02*
X176634612Y-43930186D01*
X176634612Y-43930186D02*
X176595907Y-44046300D01*
X176595907Y-44046300D02*
X176518497Y-44123710D01*
X176518497Y-44123710D02*
X176441088Y-44162415D01*
X176441088Y-44162415D02*
X176286269Y-44201119D01*
X176286269Y-44201119D02*
X176170155Y-44201119D01*
X176170155Y-44201119D02*
X176015336Y-44162415D01*
X176015336Y-44162415D02*
X175937926Y-44123710D01*
X175937926Y-44123710D02*
X175860517Y-44046300D01*
X175860517Y-44046300D02*
X175821812Y-43930186D01*
X175821812Y-43930186D02*
X175821812Y-43736662D01*
X172687774Y-59669462D02*
X173259202Y-59269462D01*
X172687774Y-58983748D02*
X173887774Y-58983748D01*
X173887774Y-58983748D02*
X173887774Y-59440891D01*
X173887774Y-59440891D02*
X173830631Y-59555176D01*
X173830631Y-59555176D02*
X173773488Y-59612319D01*
X173773488Y-59612319D02*
X173659202Y-59669462D01*
X173659202Y-59669462D02*
X173487774Y-59669462D01*
X173487774Y-59669462D02*
X173373488Y-59612319D01*
X173373488Y-59612319D02*
X173316345Y-59555176D01*
X173316345Y-59555176D02*
X173259202Y-59440891D01*
X173259202Y-59440891D02*
X173259202Y-58983748D01*
X172687774Y-60698034D02*
X173316345Y-60698034D01*
X173316345Y-60698034D02*
X173430631Y-60640891D01*
X173430631Y-60640891D02*
X173487774Y-60526605D01*
X173487774Y-60526605D02*
X173487774Y-60298034D01*
X173487774Y-60298034D02*
X173430631Y-60183748D01*
X172744917Y-60698034D02*
X172687774Y-60583748D01*
X172687774Y-60583748D02*
X172687774Y-60298034D01*
X172687774Y-60298034D02*
X172744917Y-60183748D01*
X172744917Y-60183748D02*
X172859202Y-60126605D01*
X172859202Y-60126605D02*
X172973488Y-60126605D01*
X172973488Y-60126605D02*
X173087774Y-60183748D01*
X173087774Y-60183748D02*
X173144917Y-60298034D01*
X173144917Y-60298034D02*
X173144917Y-60583748D01*
X173144917Y-60583748D02*
X173202059Y-60698034D01*
X173144917Y-61269462D02*
X173144917Y-62183748D01*
X173887774Y-62983747D02*
X173887774Y-63098033D01*
X173887774Y-63098033D02*
X173830631Y-63212319D01*
X173830631Y-63212319D02*
X173773488Y-63269462D01*
X173773488Y-63269462D02*
X173659202Y-63326604D01*
X173659202Y-63326604D02*
X173430631Y-63383747D01*
X173430631Y-63383747D02*
X173144917Y-63383747D01*
X173144917Y-63383747D02*
X172916345Y-63326604D01*
X172916345Y-63326604D02*
X172802059Y-63269462D01*
X172802059Y-63269462D02*
X172744917Y-63212319D01*
X172744917Y-63212319D02*
X172687774Y-63098033D01*
X172687774Y-63098033D02*
X172687774Y-62983747D01*
X172687774Y-62983747D02*
X172744917Y-62869462D01*
X172744917Y-62869462D02*
X172802059Y-62812319D01*
X172802059Y-62812319D02*
X172916345Y-62755176D01*
X172916345Y-62755176D02*
X173144917Y-62698033D01*
X173144917Y-62698033D02*
X173430631Y-62698033D01*
X173430631Y-62698033D02*
X173659202Y-62755176D01*
X173659202Y-62755176D02*
X173773488Y-62812319D01*
X173773488Y-62812319D02*
X173830631Y-62869462D01*
X173830631Y-62869462D02*
X173887774Y-62983747D01*
X173773488Y-63840890D02*
X173830631Y-63898033D01*
X173830631Y-63898033D02*
X173887774Y-64012319D01*
X173887774Y-64012319D02*
X173887774Y-64298033D01*
X173887774Y-64298033D02*
X173830631Y-64412319D01*
X173830631Y-64412319D02*
X173773488Y-64469461D01*
X173773488Y-64469461D02*
X173659202Y-64526604D01*
X173659202Y-64526604D02*
X173544917Y-64526604D01*
X173544917Y-64526604D02*
X173373488Y-64469461D01*
X173373488Y-64469461D02*
X172687774Y-63783747D01*
X172687774Y-63783747D02*
X172687774Y-64526604D01*
X174095807Y-42497910D02*
X174134512Y-42420500D01*
X174134512Y-42420500D02*
X174134512Y-42304386D01*
X174134512Y-42304386D02*
X174095807Y-42188272D01*
X174095807Y-42188272D02*
X174018397Y-42110862D01*
X174018397Y-42110862D02*
X173940988Y-42072157D01*
X173940988Y-42072157D02*
X173786169Y-42033453D01*
X173786169Y-42033453D02*
X173670055Y-42033453D01*
X173670055Y-42033453D02*
X173515236Y-42072157D01*
X173515236Y-42072157D02*
X173437826Y-42110862D01*
X173437826Y-42110862D02*
X173360417Y-42188272D01*
X173360417Y-42188272D02*
X173321712Y-42304386D01*
X173321712Y-42304386D02*
X173321712Y-42381795D01*
X173321712Y-42381795D02*
X173360417Y-42497910D01*
X173360417Y-42497910D02*
X173399121Y-42536614D01*
X173399121Y-42536614D02*
X173670055Y-42536614D01*
X173670055Y-42536614D02*
X173670055Y-42381795D01*
X173321712Y-42884957D02*
X174134512Y-42884957D01*
X174134512Y-42884957D02*
X173321712Y-43349414D01*
X173321712Y-43349414D02*
X174134512Y-43349414D01*
X173321712Y-43736462D02*
X174134512Y-43736462D01*
X174134512Y-43736462D02*
X174134512Y-43929986D01*
X174134512Y-43929986D02*
X174095807Y-44046100D01*
X174095807Y-44046100D02*
X174018397Y-44123510D01*
X174018397Y-44123510D02*
X173940988Y-44162215D01*
X173940988Y-44162215D02*
X173786169Y-44200919D01*
X173786169Y-44200919D02*
X173670055Y-44200919D01*
X173670055Y-44200919D02*
X173515236Y-44162215D01*
X173515236Y-44162215D02*
X173437826Y-44123510D01*
X173437826Y-44123510D02*
X173360417Y-44046100D01*
X173360417Y-44046100D02*
X173321712Y-43929986D01*
X173321712Y-43929986D02*
X173321712Y-43736462D01*
X165721712Y-42672357D02*
X166534512Y-42672357D01*
X166534512Y-43214224D02*
X166534512Y-43369043D01*
X166534512Y-43369043D02*
X166495807Y-43446453D01*
X166495807Y-43446453D02*
X166418397Y-43523862D01*
X166418397Y-43523862D02*
X166263578Y-43562567D01*
X166263578Y-43562567D02*
X165992645Y-43562567D01*
X165992645Y-43562567D02*
X165837826Y-43523862D01*
X165837826Y-43523862D02*
X165760417Y-43446453D01*
X165760417Y-43446453D02*
X165721712Y-43369043D01*
X165721712Y-43369043D02*
X165721712Y-43214224D01*
X165721712Y-43214224D02*
X165760417Y-43136815D01*
X165760417Y-43136815D02*
X165837826Y-43059405D01*
X165837826Y-43059405D02*
X165992645Y-43020701D01*
X165992645Y-43020701D02*
X166263578Y-43020701D01*
X166263578Y-43020701D02*
X166418397Y-43059405D01*
X166418397Y-43059405D02*
X166495807Y-43136815D01*
X166495807Y-43136815D02*
X166534512Y-43214224D01*
X166534512Y-44065729D02*
X166534512Y-44143139D01*
X166534512Y-44143139D02*
X166495807Y-44220548D01*
X166495807Y-44220548D02*
X166457102Y-44259253D01*
X166457102Y-44259253D02*
X166379693Y-44297958D01*
X166379693Y-44297958D02*
X166224874Y-44336663D01*
X166224874Y-44336663D02*
X166031350Y-44336663D01*
X166031350Y-44336663D02*
X165876531Y-44297958D01*
X165876531Y-44297958D02*
X165799121Y-44259253D01*
X165799121Y-44259253D02*
X165760417Y-44220548D01*
X165760417Y-44220548D02*
X165721712Y-44143139D01*
X165721712Y-44143139D02*
X165721712Y-44065729D01*
X165721712Y-44065729D02*
X165760417Y-43988320D01*
X165760417Y-43988320D02*
X165799121Y-43949615D01*
X165799121Y-43949615D02*
X165876531Y-43910910D01*
X165876531Y-43910910D02*
X166031350Y-43872206D01*
X166031350Y-43872206D02*
X166224874Y-43872206D01*
X166224874Y-43872206D02*
X166379693Y-43910910D01*
X166379693Y-43910910D02*
X166457102Y-43949615D01*
X166457102Y-43949615D02*
X166495807Y-43988320D01*
X166495807Y-43988320D02*
X166534512Y-44065729D01*
X166506312Y-54091657D02*
X167319112Y-54091657D01*
X166545017Y-54440001D02*
X166506312Y-54556115D01*
X166506312Y-54556115D02*
X166506312Y-54749639D01*
X166506312Y-54749639D02*
X166545017Y-54827048D01*
X166545017Y-54827048D02*
X166583721Y-54865753D01*
X166583721Y-54865753D02*
X166661131Y-54904458D01*
X166661131Y-54904458D02*
X166738540Y-54904458D01*
X166738540Y-54904458D02*
X166815950Y-54865753D01*
X166815950Y-54865753D02*
X166854655Y-54827048D01*
X166854655Y-54827048D02*
X166893359Y-54749639D01*
X166893359Y-54749639D02*
X166932064Y-54594820D01*
X166932064Y-54594820D02*
X166970769Y-54517410D01*
X166970769Y-54517410D02*
X167009474Y-54478705D01*
X167009474Y-54478705D02*
X167086883Y-54440001D01*
X167086883Y-54440001D02*
X167164293Y-54440001D01*
X167164293Y-54440001D02*
X167241702Y-54478705D01*
X167241702Y-54478705D02*
X167280407Y-54517410D01*
X167280407Y-54517410D02*
X167319112Y-54594820D01*
X167319112Y-54594820D02*
X167319112Y-54788343D01*
X167319112Y-54788343D02*
X167280407Y-54904458D01*
X166506312Y-55252800D02*
X167319112Y-55252800D01*
X167319112Y-55252800D02*
X166738540Y-55523734D01*
X166738540Y-55523734D02*
X167319112Y-55794667D01*
X167319112Y-55794667D02*
X166506312Y-55794667D01*
X166583721Y-56181714D02*
X166545017Y-56220419D01*
X166545017Y-56220419D02*
X166506312Y-56181714D01*
X166506312Y-56181714D02*
X166545017Y-56143010D01*
X166545017Y-56143010D02*
X166583721Y-56181714D01*
X166583721Y-56181714D02*
X166506312Y-56181714D01*
X167009474Y-56181714D02*
X166970769Y-56220419D01*
X166970769Y-56220419D02*
X166932064Y-56181714D01*
X166932064Y-56181714D02*
X166970769Y-56143010D01*
X166970769Y-56143010D02*
X167009474Y-56181714D01*
X167009474Y-56181714D02*
X166932064Y-56181714D01*
X167048178Y-56917105D02*
X166506312Y-56917105D01*
X167357817Y-56723581D02*
X166777245Y-56530058D01*
X166777245Y-56530058D02*
X166777245Y-57033219D01*
X166506312Y-57768610D02*
X166506312Y-57304153D01*
X166506312Y-57536381D02*
X167319112Y-57536381D01*
X167319112Y-57536381D02*
X167202997Y-57458972D01*
X167202997Y-57458972D02*
X167125588Y-57381562D01*
X167125588Y-57381562D02*
X167086883Y-57304153D01*
X167319112Y-58271771D02*
X167319112Y-58349181D01*
X167319112Y-58349181D02*
X167280407Y-58426590D01*
X167280407Y-58426590D02*
X167241702Y-58465295D01*
X167241702Y-58465295D02*
X167164293Y-58504000D01*
X167164293Y-58504000D02*
X167009474Y-58542705D01*
X167009474Y-58542705D02*
X166815950Y-58542705D01*
X166815950Y-58542705D02*
X166661131Y-58504000D01*
X166661131Y-58504000D02*
X166583721Y-58465295D01*
X166583721Y-58465295D02*
X166545017Y-58426590D01*
X166545017Y-58426590D02*
X166506312Y-58349181D01*
X166506312Y-58349181D02*
X166506312Y-58271771D01*
X166506312Y-58271771D02*
X166545017Y-58194362D01*
X166545017Y-58194362D02*
X166583721Y-58155657D01*
X166583721Y-58155657D02*
X166661131Y-58116952D01*
X166661131Y-58116952D02*
X166815950Y-58078248D01*
X166815950Y-58078248D02*
X167009474Y-58078248D01*
X167009474Y-58078248D02*
X167164293Y-58116952D01*
X167164293Y-58116952D02*
X167241702Y-58155657D01*
X167241702Y-58155657D02*
X167280407Y-58194362D01*
X167280407Y-58194362D02*
X167319112Y-58271771D01*
X166815950Y-58891047D02*
X166815950Y-59510324D01*
X167319112Y-60284419D02*
X167319112Y-59897371D01*
X167319112Y-59897371D02*
X166932064Y-59858667D01*
X166932064Y-59858667D02*
X166970769Y-59897371D01*
X166970769Y-59897371D02*
X167009474Y-59974781D01*
X167009474Y-59974781D02*
X167009474Y-60168305D01*
X167009474Y-60168305D02*
X166970769Y-60245714D01*
X166970769Y-60245714D02*
X166932064Y-60284419D01*
X166932064Y-60284419D02*
X166854655Y-60323124D01*
X166854655Y-60323124D02*
X166661131Y-60323124D01*
X166661131Y-60323124D02*
X166583721Y-60284419D01*
X166583721Y-60284419D02*
X166545017Y-60245714D01*
X166545017Y-60245714D02*
X166506312Y-60168305D01*
X166506312Y-60168305D02*
X166506312Y-59974781D01*
X166506312Y-59974781D02*
X166545017Y-59897371D01*
X166545017Y-59897371D02*
X166583721Y-59858667D01*
X167241702Y-60632762D02*
X167280407Y-60671466D01*
X167280407Y-60671466D02*
X167319112Y-60748876D01*
X167319112Y-60748876D02*
X167319112Y-60942400D01*
X167319112Y-60942400D02*
X167280407Y-61019809D01*
X167280407Y-61019809D02*
X167241702Y-61058514D01*
X167241702Y-61058514D02*
X167164293Y-61097219D01*
X167164293Y-61097219D02*
X167086883Y-61097219D01*
X167086883Y-61097219D02*
X166970769Y-61058514D01*
X166970769Y-61058514D02*
X166506312Y-60594057D01*
X166506312Y-60594057D02*
X166506312Y-61097219D01*
X167319112Y-61832609D02*
X167319112Y-61445561D01*
X167319112Y-61445561D02*
X166932064Y-61406857D01*
X166932064Y-61406857D02*
X166970769Y-61445561D01*
X166970769Y-61445561D02*
X167009474Y-61522971D01*
X167009474Y-61522971D02*
X167009474Y-61716495D01*
X167009474Y-61716495D02*
X166970769Y-61793904D01*
X166970769Y-61793904D02*
X166932064Y-61832609D01*
X166932064Y-61832609D02*
X166854655Y-61871314D01*
X166854655Y-61871314D02*
X166661131Y-61871314D01*
X166661131Y-61871314D02*
X166583721Y-61832609D01*
X166583721Y-61832609D02*
X166545017Y-61793904D01*
X166545017Y-61793904D02*
X166506312Y-61716495D01*
X166506312Y-61716495D02*
X166506312Y-61522971D01*
X166506312Y-61522971D02*
X166545017Y-61445561D01*
X166545017Y-61445561D02*
X166583721Y-61406857D01*
X166506312Y-62219656D02*
X167319112Y-62219656D01*
X167319112Y-62219656D02*
X166738540Y-62490590D01*
X166738540Y-62490590D02*
X167319112Y-62761523D01*
X167319112Y-62761523D02*
X166506312Y-62761523D01*
X166506312Y-63148570D02*
X167319112Y-63148570D01*
X166932064Y-63148570D02*
X166932064Y-63613027D01*
X166506312Y-63613027D02*
X167319112Y-63613027D01*
X167048178Y-63922666D02*
X167048178Y-64348418D01*
X167048178Y-64348418D02*
X166506312Y-63922666D01*
X166506312Y-63922666D02*
X166506312Y-64348418D01*
X160521812Y-75327057D02*
X161334612Y-75327057D01*
X161334612Y-75868924D02*
X161334612Y-76023743D01*
X161334612Y-76023743D02*
X161295907Y-76101153D01*
X161295907Y-76101153D02*
X161218497Y-76178562D01*
X161218497Y-76178562D02*
X161063678Y-76217267D01*
X161063678Y-76217267D02*
X160792745Y-76217267D01*
X160792745Y-76217267D02*
X160637926Y-76178562D01*
X160637926Y-76178562D02*
X160560517Y-76101153D01*
X160560517Y-76101153D02*
X160521812Y-76023743D01*
X160521812Y-76023743D02*
X160521812Y-75868924D01*
X160521812Y-75868924D02*
X160560517Y-75791515D01*
X160560517Y-75791515D02*
X160637926Y-75714105D01*
X160637926Y-75714105D02*
X160792745Y-75675401D01*
X160792745Y-75675401D02*
X161063678Y-75675401D01*
X161063678Y-75675401D02*
X161218497Y-75714105D01*
X161218497Y-75714105D02*
X161295907Y-75791515D01*
X161295907Y-75791515D02*
X161334612Y-75868924D01*
X161063678Y-76913953D02*
X160521812Y-76913953D01*
X161373317Y-76720429D02*
X160792745Y-76526906D01*
X160792745Y-76526906D02*
X160792745Y-77030067D01*
X160621712Y-42672357D02*
X161434512Y-42672357D01*
X161434512Y-43214224D02*
X161434512Y-43369043D01*
X161434512Y-43369043D02*
X161395807Y-43446453D01*
X161395807Y-43446453D02*
X161318397Y-43523862D01*
X161318397Y-43523862D02*
X161163578Y-43562567D01*
X161163578Y-43562567D02*
X160892645Y-43562567D01*
X160892645Y-43562567D02*
X160737826Y-43523862D01*
X160737826Y-43523862D02*
X160660417Y-43446453D01*
X160660417Y-43446453D02*
X160621712Y-43369043D01*
X160621712Y-43369043D02*
X160621712Y-43214224D01*
X160621712Y-43214224D02*
X160660417Y-43136815D01*
X160660417Y-43136815D02*
X160737826Y-43059405D01*
X160737826Y-43059405D02*
X160892645Y-43020701D01*
X160892645Y-43020701D02*
X161163578Y-43020701D01*
X161163578Y-43020701D02*
X161318397Y-43059405D01*
X161318397Y-43059405D02*
X161395807Y-43136815D01*
X161395807Y-43136815D02*
X161434512Y-43214224D01*
X161357102Y-43872206D02*
X161395807Y-43910910D01*
X161395807Y-43910910D02*
X161434512Y-43988320D01*
X161434512Y-43988320D02*
X161434512Y-44181844D01*
X161434512Y-44181844D02*
X161395807Y-44259253D01*
X161395807Y-44259253D02*
X161357102Y-44297958D01*
X161357102Y-44297958D02*
X161279693Y-44336663D01*
X161279693Y-44336663D02*
X161202283Y-44336663D01*
X161202283Y-44336663D02*
X161086169Y-44297958D01*
X161086169Y-44297958D02*
X160621712Y-43833501D01*
X160621712Y-43833501D02*
X160621712Y-44336663D01*
X165660617Y-75288353D02*
X165621912Y-75404467D01*
X165621912Y-75404467D02*
X165621912Y-75597991D01*
X165621912Y-75597991D02*
X165660617Y-75675400D01*
X165660617Y-75675400D02*
X165699321Y-75714105D01*
X165699321Y-75714105D02*
X165776731Y-75752810D01*
X165776731Y-75752810D02*
X165854140Y-75752810D01*
X165854140Y-75752810D02*
X165931550Y-75714105D01*
X165931550Y-75714105D02*
X165970255Y-75675400D01*
X165970255Y-75675400D02*
X166008959Y-75597991D01*
X166008959Y-75597991D02*
X166047664Y-75443172D01*
X166047664Y-75443172D02*
X166086369Y-75365762D01*
X166086369Y-75365762D02*
X166125074Y-75327057D01*
X166125074Y-75327057D02*
X166202483Y-75288353D01*
X166202483Y-75288353D02*
X166279893Y-75288353D01*
X166279893Y-75288353D02*
X166357302Y-75327057D01*
X166357302Y-75327057D02*
X166396007Y-75365762D01*
X166396007Y-75365762D02*
X166434712Y-75443172D01*
X166434712Y-75443172D02*
X166434712Y-75636695D01*
X166434712Y-75636695D02*
X166396007Y-75752810D01*
X165699321Y-76565609D02*
X165660617Y-76526905D01*
X165660617Y-76526905D02*
X165621912Y-76410790D01*
X165621912Y-76410790D02*
X165621912Y-76333381D01*
X165621912Y-76333381D02*
X165660617Y-76217267D01*
X165660617Y-76217267D02*
X165738026Y-76139857D01*
X165738026Y-76139857D02*
X165815436Y-76101152D01*
X165815436Y-76101152D02*
X165970255Y-76062448D01*
X165970255Y-76062448D02*
X166086369Y-76062448D01*
X166086369Y-76062448D02*
X166241188Y-76101152D01*
X166241188Y-76101152D02*
X166318597Y-76139857D01*
X166318597Y-76139857D02*
X166396007Y-76217267D01*
X166396007Y-76217267D02*
X166434712Y-76333381D01*
X166434712Y-76333381D02*
X166434712Y-76410790D01*
X166434712Y-76410790D02*
X166396007Y-76526905D01*
X166396007Y-76526905D02*
X166357302Y-76565609D01*
X165621912Y-76913952D02*
X166434712Y-76913952D01*
X165621912Y-77378409D02*
X166086369Y-77030067D01*
X166434712Y-77378409D02*
X165970255Y-76913952D01*
X168221612Y-42583114D02*
X168608659Y-42312181D01*
X168221612Y-42118657D02*
X169034412Y-42118657D01*
X169034412Y-42118657D02*
X169034412Y-42428295D01*
X169034412Y-42428295D02*
X168995707Y-42505705D01*
X168995707Y-42505705D02*
X168957002Y-42544410D01*
X168957002Y-42544410D02*
X168879593Y-42583114D01*
X168879593Y-42583114D02*
X168763478Y-42583114D01*
X168763478Y-42583114D02*
X168686069Y-42544410D01*
X168686069Y-42544410D02*
X168647364Y-42505705D01*
X168647364Y-42505705D02*
X168608659Y-42428295D01*
X168608659Y-42428295D02*
X168608659Y-42118657D01*
X168260317Y-42892753D02*
X168221612Y-43008867D01*
X168221612Y-43008867D02*
X168221612Y-43202391D01*
X168221612Y-43202391D02*
X168260317Y-43279800D01*
X168260317Y-43279800D02*
X168299021Y-43318505D01*
X168299021Y-43318505D02*
X168376431Y-43357210D01*
X168376431Y-43357210D02*
X168453840Y-43357210D01*
X168453840Y-43357210D02*
X168531250Y-43318505D01*
X168531250Y-43318505D02*
X168569955Y-43279800D01*
X168569955Y-43279800D02*
X168608659Y-43202391D01*
X168608659Y-43202391D02*
X168647364Y-43047572D01*
X168647364Y-43047572D02*
X168686069Y-42970162D01*
X168686069Y-42970162D02*
X168724774Y-42931457D01*
X168724774Y-42931457D02*
X168802183Y-42892753D01*
X168802183Y-42892753D02*
X168879593Y-42892753D01*
X168879593Y-42892753D02*
X168957002Y-42931457D01*
X168957002Y-42931457D02*
X168995707Y-42970162D01*
X168995707Y-42970162D02*
X169034412Y-43047572D01*
X169034412Y-43047572D02*
X169034412Y-43241095D01*
X169034412Y-43241095D02*
X168995707Y-43357210D01*
X169034412Y-43589438D02*
X169034412Y-44053895D01*
X168221612Y-43821667D02*
X169034412Y-43821667D01*
X158796107Y-75752810D02*
X158834812Y-75675400D01*
X158834812Y-75675400D02*
X158834812Y-75559286D01*
X158834812Y-75559286D02*
X158796107Y-75443172D01*
X158796107Y-75443172D02*
X158718697Y-75365762D01*
X158718697Y-75365762D02*
X158641288Y-75327057D01*
X158641288Y-75327057D02*
X158486469Y-75288353D01*
X158486469Y-75288353D02*
X158370355Y-75288353D01*
X158370355Y-75288353D02*
X158215536Y-75327057D01*
X158215536Y-75327057D02*
X158138126Y-75365762D01*
X158138126Y-75365762D02*
X158060717Y-75443172D01*
X158060717Y-75443172D02*
X158022012Y-75559286D01*
X158022012Y-75559286D02*
X158022012Y-75636695D01*
X158022012Y-75636695D02*
X158060717Y-75752810D01*
X158060717Y-75752810D02*
X158099421Y-75791514D01*
X158099421Y-75791514D02*
X158370355Y-75791514D01*
X158370355Y-75791514D02*
X158370355Y-75636695D01*
X158022012Y-76139857D02*
X158834812Y-76139857D01*
X158834812Y-76139857D02*
X158022012Y-76604314D01*
X158022012Y-76604314D02*
X158834812Y-76604314D01*
X158022012Y-76991362D02*
X158834812Y-76991362D01*
X158834812Y-76991362D02*
X158834812Y-77184886D01*
X158834812Y-77184886D02*
X158796107Y-77301000D01*
X158796107Y-77301000D02*
X158718697Y-77378410D01*
X158718697Y-77378410D02*
X158641288Y-77417115D01*
X158641288Y-77417115D02*
X158486469Y-77455819D01*
X158486469Y-77455819D02*
X158370355Y-77455819D01*
X158370355Y-77455819D02*
X158215536Y-77417115D01*
X158215536Y-77417115D02*
X158138126Y-77378410D01*
X158138126Y-77378410D02*
X158060717Y-77301000D01*
X158060717Y-77301000D02*
X158022012Y-77184886D01*
X158022012Y-77184886D02*
X158022012Y-76991362D01*
X170621912Y-75327057D02*
X171434712Y-75327057D01*
X171434712Y-75327057D02*
X170854140Y-75597991D01*
X170854140Y-75597991D02*
X171434712Y-75868924D01*
X171434712Y-75868924D02*
X170621912Y-75868924D01*
X171434712Y-76410790D02*
X171434712Y-76565609D01*
X171434712Y-76565609D02*
X171396007Y-76643019D01*
X171396007Y-76643019D02*
X171318597Y-76720428D01*
X171318597Y-76720428D02*
X171163778Y-76759133D01*
X171163778Y-76759133D02*
X170892845Y-76759133D01*
X170892845Y-76759133D02*
X170738026Y-76720428D01*
X170738026Y-76720428D02*
X170660617Y-76643019D01*
X170660617Y-76643019D02*
X170621912Y-76565609D01*
X170621912Y-76565609D02*
X170621912Y-76410790D01*
X170621912Y-76410790D02*
X170660617Y-76333381D01*
X170660617Y-76333381D02*
X170738026Y-76255971D01*
X170738026Y-76255971D02*
X170892845Y-76217267D01*
X170892845Y-76217267D02*
X171163778Y-76217267D01*
X171163778Y-76217267D02*
X171318597Y-76255971D01*
X171318597Y-76255971D02*
X171396007Y-76333381D01*
X171396007Y-76333381D02*
X171434712Y-76410790D01*
X170660617Y-77068772D02*
X170621912Y-77184886D01*
X170621912Y-77184886D02*
X170621912Y-77378410D01*
X170621912Y-77378410D02*
X170660617Y-77455819D01*
X170660617Y-77455819D02*
X170699321Y-77494524D01*
X170699321Y-77494524D02*
X170776731Y-77533229D01*
X170776731Y-77533229D02*
X170854140Y-77533229D01*
X170854140Y-77533229D02*
X170931550Y-77494524D01*
X170931550Y-77494524D02*
X170970255Y-77455819D01*
X170970255Y-77455819D02*
X171008959Y-77378410D01*
X171008959Y-77378410D02*
X171047664Y-77223591D01*
X171047664Y-77223591D02*
X171086369Y-77146181D01*
X171086369Y-77146181D02*
X171125074Y-77107476D01*
X171125074Y-77107476D02*
X171202483Y-77068772D01*
X171202483Y-77068772D02*
X171279893Y-77068772D01*
X171279893Y-77068772D02*
X171357302Y-77107476D01*
X171357302Y-77107476D02*
X171396007Y-77146181D01*
X171396007Y-77146181D02*
X171434712Y-77223591D01*
X171434712Y-77223591D02*
X171434712Y-77417114D01*
X171434712Y-77417114D02*
X171396007Y-77533229D01*
X170621912Y-77881571D02*
X171434712Y-77881571D01*
X173221812Y-75327057D02*
X174034612Y-75327057D01*
X174034612Y-75327057D02*
X173221812Y-75791514D01*
X173221812Y-75791514D02*
X174034612Y-75791514D01*
X173260517Y-76139858D02*
X173221812Y-76255972D01*
X173221812Y-76255972D02*
X173221812Y-76449496D01*
X173221812Y-76449496D02*
X173260517Y-76526905D01*
X173260517Y-76526905D02*
X173299221Y-76565610D01*
X173299221Y-76565610D02*
X173376631Y-76604315D01*
X173376631Y-76604315D02*
X173454040Y-76604315D01*
X173454040Y-76604315D02*
X173531450Y-76565610D01*
X173531450Y-76565610D02*
X173570155Y-76526905D01*
X173570155Y-76526905D02*
X173608859Y-76449496D01*
X173608859Y-76449496D02*
X173647564Y-76294677D01*
X173647564Y-76294677D02*
X173686269Y-76217267D01*
X173686269Y-76217267D02*
X173724974Y-76178562D01*
X173724974Y-76178562D02*
X173802383Y-76139858D01*
X173802383Y-76139858D02*
X173879793Y-76139858D01*
X173879793Y-76139858D02*
X173957202Y-76178562D01*
X173957202Y-76178562D02*
X173995907Y-76217267D01*
X173995907Y-76217267D02*
X174034612Y-76294677D01*
X174034612Y-76294677D02*
X174034612Y-76488200D01*
X174034612Y-76488200D02*
X173995907Y-76604315D01*
X173260517Y-76913953D02*
X173221812Y-77030067D01*
X173221812Y-77030067D02*
X173221812Y-77223591D01*
X173221812Y-77223591D02*
X173260517Y-77301000D01*
X173260517Y-77301000D02*
X173299221Y-77339705D01*
X173299221Y-77339705D02*
X173376631Y-77378410D01*
X173376631Y-77378410D02*
X173454040Y-77378410D01*
X173454040Y-77378410D02*
X173531450Y-77339705D01*
X173531450Y-77339705D02*
X173570155Y-77301000D01*
X173570155Y-77301000D02*
X173608859Y-77223591D01*
X173608859Y-77223591D02*
X173647564Y-77068772D01*
X173647564Y-77068772D02*
X173686269Y-76991362D01*
X173686269Y-76991362D02*
X173724974Y-76952657D01*
X173724974Y-76952657D02*
X173802383Y-76913953D01*
X173802383Y-76913953D02*
X173879793Y-76913953D01*
X173879793Y-76913953D02*
X173957202Y-76952657D01*
X173957202Y-76952657D02*
X173995907Y-76991362D01*
X173995907Y-76991362D02*
X174034612Y-77068772D01*
X174034612Y-77068772D02*
X174034612Y-77262295D01*
X174034612Y-77262295D02*
X173995907Y-77378410D01*
X170738540Y-56052953D02*
X170738540Y-56440000D01*
X170506312Y-55975543D02*
X171319112Y-56246476D01*
X171319112Y-56246476D02*
X170506312Y-56517410D01*
X170506312Y-56788343D02*
X171048178Y-56788343D01*
X171319112Y-56788343D02*
X171280407Y-56749639D01*
X171280407Y-56749639D02*
X171241702Y-56788343D01*
X171241702Y-56788343D02*
X171280407Y-56827048D01*
X171280407Y-56827048D02*
X171319112Y-56788343D01*
X171319112Y-56788343D02*
X171241702Y-56788343D01*
X170815950Y-57794667D02*
X170815950Y-58413944D01*
X171319112Y-59304153D02*
X171319112Y-59768610D01*
X170506312Y-59536382D02*
X171319112Y-59536382D01*
X170506312Y-60039543D02*
X171319112Y-60039543D01*
X170506312Y-60387886D02*
X170932064Y-60387886D01*
X170932064Y-60387886D02*
X171009474Y-60349181D01*
X171009474Y-60349181D02*
X171048178Y-60271772D01*
X171048178Y-60271772D02*
X171048178Y-60155658D01*
X171048178Y-60155658D02*
X171009474Y-60078248D01*
X171009474Y-60078248D02*
X170970769Y-60039543D01*
X170506312Y-60774933D02*
X171048178Y-60774933D01*
X171319112Y-60774933D02*
X171280407Y-60736229D01*
X171280407Y-60736229D02*
X171241702Y-60774933D01*
X171241702Y-60774933D02*
X171280407Y-60813638D01*
X171280407Y-60813638D02*
X171319112Y-60774933D01*
X171319112Y-60774933D02*
X171241702Y-60774933D01*
X171048178Y-61161981D02*
X170506312Y-61161981D01*
X170970769Y-61161981D02*
X171009474Y-61200686D01*
X171009474Y-61200686D02*
X171048178Y-61278096D01*
X171048178Y-61278096D02*
X171048178Y-61394210D01*
X171048178Y-61394210D02*
X171009474Y-61471619D01*
X171009474Y-61471619D02*
X170932064Y-61510324D01*
X170932064Y-61510324D02*
X170506312Y-61510324D01*
X170506312Y-61897371D02*
X171319112Y-61897371D01*
X170815950Y-61974781D02*
X170506312Y-62207009D01*
X171048178Y-62207009D02*
X170738540Y-61897371D01*
X170545017Y-62864990D02*
X170506312Y-62787581D01*
X170506312Y-62787581D02*
X170506312Y-62632762D01*
X170506312Y-62632762D02*
X170545017Y-62555352D01*
X170545017Y-62555352D02*
X170622426Y-62516648D01*
X170622426Y-62516648D02*
X170932064Y-62516648D01*
X170932064Y-62516648D02*
X171009474Y-62555352D01*
X171009474Y-62555352D02*
X171048178Y-62632762D01*
X171048178Y-62632762D02*
X171048178Y-62787581D01*
X171048178Y-62787581D02*
X171009474Y-62864990D01*
X171009474Y-62864990D02*
X170932064Y-62903695D01*
X170932064Y-62903695D02*
X170854655Y-62903695D01*
X170854655Y-62903695D02*
X170777245Y-62516648D01*
X170506312Y-63252038D02*
X171048178Y-63252038D01*
X170893359Y-63252038D02*
X170970769Y-63290743D01*
X170970769Y-63290743D02*
X171009474Y-63329448D01*
X171009474Y-63329448D02*
X171048178Y-63406857D01*
X171048178Y-63406857D02*
X171048178Y-63484267D01*
X162006212Y-54578805D02*
X162006212Y-54191757D01*
X162006212Y-54191757D02*
X162819012Y-54191757D01*
X162006212Y-54965853D02*
X162044917Y-54888443D01*
X162044917Y-54888443D02*
X162083621Y-54849738D01*
X162083621Y-54849738D02*
X162161031Y-54811034D01*
X162161031Y-54811034D02*
X162393259Y-54811034D01*
X162393259Y-54811034D02*
X162470669Y-54849738D01*
X162470669Y-54849738D02*
X162509374Y-54888443D01*
X162509374Y-54888443D02*
X162548078Y-54965853D01*
X162548078Y-54965853D02*
X162548078Y-55081967D01*
X162548078Y-55081967D02*
X162509374Y-55159376D01*
X162509374Y-55159376D02*
X162470669Y-55198081D01*
X162470669Y-55198081D02*
X162393259Y-55236786D01*
X162393259Y-55236786D02*
X162161031Y-55236786D01*
X162161031Y-55236786D02*
X162083621Y-55198081D01*
X162083621Y-55198081D02*
X162044917Y-55159376D01*
X162044917Y-55159376D02*
X162006212Y-55081967D01*
X162006212Y-55081967D02*
X162006212Y-54965853D01*
X162006212Y-56049585D02*
X162393259Y-55778652D01*
X162006212Y-55585128D02*
X162819012Y-55585128D01*
X162819012Y-55585128D02*
X162819012Y-55894766D01*
X162819012Y-55894766D02*
X162780307Y-55972176D01*
X162780307Y-55972176D02*
X162741602Y-56010881D01*
X162741602Y-56010881D02*
X162664193Y-56049585D01*
X162664193Y-56049585D02*
X162548078Y-56049585D01*
X162548078Y-56049585D02*
X162470669Y-56010881D01*
X162470669Y-56010881D02*
X162431964Y-55972176D01*
X162431964Y-55972176D02*
X162393259Y-55894766D01*
X162393259Y-55894766D02*
X162393259Y-55585128D01*
X162006212Y-56746271D02*
X162431964Y-56746271D01*
X162431964Y-56746271D02*
X162509374Y-56707566D01*
X162509374Y-56707566D02*
X162548078Y-56630157D01*
X162548078Y-56630157D02*
X162548078Y-56475338D01*
X162548078Y-56475338D02*
X162509374Y-56397928D01*
X162044917Y-56746271D02*
X162006212Y-56668862D01*
X162006212Y-56668862D02*
X162006212Y-56475338D01*
X162006212Y-56475338D02*
X162044917Y-56397928D01*
X162044917Y-56397928D02*
X162122326Y-56359224D01*
X162122326Y-56359224D02*
X162199736Y-56359224D01*
X162199736Y-56359224D02*
X162277145Y-56397928D01*
X162277145Y-56397928D02*
X162315850Y-56475338D01*
X162315850Y-56475338D02*
X162315850Y-56668862D01*
X162315850Y-56668862D02*
X162354555Y-56746271D01*
X162857717Y-57713890D02*
X161812688Y-57017204D01*
X162431964Y-58255757D02*
X162431964Y-57984823D01*
X162006212Y-57984823D02*
X162819012Y-57984823D01*
X162819012Y-57984823D02*
X162819012Y-58371871D01*
X162044917Y-58642805D02*
X162006212Y-58758919D01*
X162006212Y-58758919D02*
X162006212Y-58952443D01*
X162006212Y-58952443D02*
X162044917Y-59029852D01*
X162044917Y-59029852D02*
X162083621Y-59068557D01*
X162083621Y-59068557D02*
X162161031Y-59107262D01*
X162161031Y-59107262D02*
X162238440Y-59107262D01*
X162238440Y-59107262D02*
X162315850Y-59068557D01*
X162315850Y-59068557D02*
X162354555Y-59029852D01*
X162354555Y-59029852D02*
X162393259Y-58952443D01*
X162393259Y-58952443D02*
X162431964Y-58797624D01*
X162431964Y-58797624D02*
X162470669Y-58720214D01*
X162470669Y-58720214D02*
X162509374Y-58681509D01*
X162509374Y-58681509D02*
X162586783Y-58642805D01*
X162586783Y-58642805D02*
X162664193Y-58642805D01*
X162664193Y-58642805D02*
X162741602Y-58681509D01*
X162741602Y-58681509D02*
X162780307Y-58720214D01*
X162780307Y-58720214D02*
X162819012Y-58797624D01*
X162819012Y-58797624D02*
X162819012Y-58991147D01*
X162819012Y-58991147D02*
X162780307Y-59107262D01*
X162006212Y-59455604D02*
X162819012Y-59455604D01*
X162006212Y-59920061D02*
X162470669Y-59571719D01*
X162819012Y-59920061D02*
X162354555Y-59455604D01*
X162857717Y-60848976D02*
X161812688Y-60152290D01*
X162819012Y-61274728D02*
X162819012Y-61429547D01*
X162819012Y-61429547D02*
X162780307Y-61506957D01*
X162780307Y-61506957D02*
X162702897Y-61584366D01*
X162702897Y-61584366D02*
X162548078Y-61623071D01*
X162548078Y-61623071D02*
X162277145Y-61623071D01*
X162277145Y-61623071D02*
X162122326Y-61584366D01*
X162122326Y-61584366D02*
X162044917Y-61506957D01*
X162044917Y-61506957D02*
X162006212Y-61429547D01*
X162006212Y-61429547D02*
X162006212Y-61274728D01*
X162006212Y-61274728D02*
X162044917Y-61197319D01*
X162044917Y-61197319D02*
X162122326Y-61119909D01*
X162122326Y-61119909D02*
X162277145Y-61081205D01*
X162277145Y-61081205D02*
X162548078Y-61081205D01*
X162548078Y-61081205D02*
X162702897Y-61119909D01*
X162702897Y-61119909D02*
X162780307Y-61197319D01*
X162780307Y-61197319D02*
X162819012Y-61274728D01*
X162819012Y-62126233D02*
X162819012Y-62281052D01*
X162819012Y-62281052D02*
X162780307Y-62358462D01*
X162780307Y-62358462D02*
X162702897Y-62435871D01*
X162702897Y-62435871D02*
X162548078Y-62474576D01*
X162548078Y-62474576D02*
X162277145Y-62474576D01*
X162277145Y-62474576D02*
X162122326Y-62435871D01*
X162122326Y-62435871D02*
X162044917Y-62358462D01*
X162044917Y-62358462D02*
X162006212Y-62281052D01*
X162006212Y-62281052D02*
X162006212Y-62126233D01*
X162006212Y-62126233D02*
X162044917Y-62048824D01*
X162044917Y-62048824D02*
X162122326Y-61971414D01*
X162122326Y-61971414D02*
X162277145Y-61932710D01*
X162277145Y-61932710D02*
X162548078Y-61932710D01*
X162548078Y-61932710D02*
X162702897Y-61971414D01*
X162702897Y-61971414D02*
X162780307Y-62048824D01*
X162780307Y-62048824D02*
X162819012Y-62126233D01*
X162006212Y-62822919D02*
X162819012Y-62822919D01*
X162006212Y-63287376D02*
X162470669Y-62939034D01*
X162819012Y-63287376D02*
X162354555Y-62822919D01*
X164406312Y-54191757D02*
X165219112Y-54191757D01*
X165219112Y-54191757D02*
X165219112Y-54501395D01*
X165219112Y-54501395D02*
X165180407Y-54578805D01*
X165180407Y-54578805D02*
X165141702Y-54617510D01*
X165141702Y-54617510D02*
X165064293Y-54656214D01*
X165064293Y-54656214D02*
X164948178Y-54656214D01*
X164948178Y-54656214D02*
X164870769Y-54617510D01*
X164870769Y-54617510D02*
X164832064Y-54578805D01*
X164832064Y-54578805D02*
X164793359Y-54501395D01*
X164793359Y-54501395D02*
X164793359Y-54191757D01*
X164638540Y-54965853D02*
X164638540Y-55352900D01*
X164406312Y-54888443D02*
X165219112Y-55159376D01*
X165219112Y-55159376D02*
X164406312Y-55430310D01*
X164483721Y-55701243D02*
X164445017Y-55739948D01*
X164445017Y-55739948D02*
X164406312Y-55701243D01*
X164406312Y-55701243D02*
X164445017Y-55662539D01*
X164445017Y-55662539D02*
X164483721Y-55701243D01*
X164483721Y-55701243D02*
X164406312Y-55701243D01*
X164909474Y-55701243D02*
X164870769Y-55739948D01*
X164870769Y-55739948D02*
X164832064Y-55701243D01*
X164832064Y-55701243D02*
X164870769Y-55662539D01*
X164870769Y-55662539D02*
X164909474Y-55701243D01*
X164909474Y-55701243D02*
X164832064Y-55701243D01*
X164715950Y-56088291D02*
X164715950Y-56707568D01*
X164406312Y-56397929D02*
X165025588Y-56397929D01*
X164406312Y-57520368D02*
X164406312Y-57055911D01*
X164406312Y-57288139D02*
X165219112Y-57288139D01*
X165219112Y-57288139D02*
X165102997Y-57210730D01*
X165102997Y-57210730D02*
X165025588Y-57133320D01*
X165025588Y-57133320D02*
X164986883Y-57055911D01*
X164870769Y-57984825D02*
X164909474Y-57907415D01*
X164909474Y-57907415D02*
X164948178Y-57868710D01*
X164948178Y-57868710D02*
X165025588Y-57830006D01*
X165025588Y-57830006D02*
X165064293Y-57830006D01*
X165064293Y-57830006D02*
X165141702Y-57868710D01*
X165141702Y-57868710D02*
X165180407Y-57907415D01*
X165180407Y-57907415D02*
X165219112Y-57984825D01*
X165219112Y-57984825D02*
X165219112Y-58139644D01*
X165219112Y-58139644D02*
X165180407Y-58217053D01*
X165180407Y-58217053D02*
X165141702Y-58255758D01*
X165141702Y-58255758D02*
X165064293Y-58294463D01*
X165064293Y-58294463D02*
X165025588Y-58294463D01*
X165025588Y-58294463D02*
X164948178Y-58255758D01*
X164948178Y-58255758D02*
X164909474Y-58217053D01*
X164909474Y-58217053D02*
X164870769Y-58139644D01*
X164870769Y-58139644D02*
X164870769Y-57984825D01*
X164870769Y-57984825D02*
X164832064Y-57907415D01*
X164832064Y-57907415D02*
X164793359Y-57868710D01*
X164793359Y-57868710D02*
X164715950Y-57830006D01*
X164715950Y-57830006D02*
X164561131Y-57830006D01*
X164561131Y-57830006D02*
X164483721Y-57868710D01*
X164483721Y-57868710D02*
X164445017Y-57907415D01*
X164445017Y-57907415D02*
X164406312Y-57984825D01*
X164406312Y-57984825D02*
X164406312Y-58139644D01*
X164406312Y-58139644D02*
X164445017Y-58217053D01*
X164445017Y-58217053D02*
X164483721Y-58255758D01*
X164483721Y-58255758D02*
X164561131Y-58294463D01*
X164561131Y-58294463D02*
X164715950Y-58294463D01*
X164715950Y-58294463D02*
X164793359Y-58255758D01*
X164793359Y-58255758D02*
X164832064Y-58217053D01*
X164832064Y-58217053D02*
X164870769Y-58139644D01*
X164406312Y-58991148D02*
X165219112Y-58991148D01*
X164445017Y-58991148D02*
X164406312Y-58913739D01*
X164406312Y-58913739D02*
X164406312Y-58758920D01*
X164406312Y-58758920D02*
X164445017Y-58681510D01*
X164445017Y-58681510D02*
X164483721Y-58642805D01*
X164483721Y-58642805D02*
X164561131Y-58604101D01*
X164561131Y-58604101D02*
X164793359Y-58604101D01*
X164793359Y-58604101D02*
X164870769Y-58642805D01*
X164870769Y-58642805D02*
X164909474Y-58681510D01*
X164909474Y-58681510D02*
X164948178Y-58758920D01*
X164948178Y-58758920D02*
X164948178Y-58913739D01*
X164948178Y-58913739D02*
X164909474Y-58991148D01*
X164832064Y-59649129D02*
X164793359Y-59765243D01*
X164793359Y-59765243D02*
X164754655Y-59803948D01*
X164754655Y-59803948D02*
X164677245Y-59842652D01*
X164677245Y-59842652D02*
X164561131Y-59842652D01*
X164561131Y-59842652D02*
X164483721Y-59803948D01*
X164483721Y-59803948D02*
X164445017Y-59765243D01*
X164445017Y-59765243D02*
X164406312Y-59687833D01*
X164406312Y-59687833D02*
X164406312Y-59378195D01*
X164406312Y-59378195D02*
X165219112Y-59378195D01*
X165219112Y-59378195D02*
X165219112Y-59649129D01*
X165219112Y-59649129D02*
X165180407Y-59726538D01*
X165180407Y-59726538D02*
X165141702Y-59765243D01*
X165141702Y-59765243D02*
X165064293Y-59803948D01*
X165064293Y-59803948D02*
X164986883Y-59803948D01*
X164986883Y-59803948D02*
X164909474Y-59765243D01*
X164909474Y-59765243D02*
X164870769Y-59726538D01*
X164870769Y-59726538D02*
X164832064Y-59649129D01*
X164832064Y-59649129D02*
X164832064Y-59378195D01*
X164406312Y-60190995D02*
X164948178Y-60190995D01*
X164870769Y-60190995D02*
X164909474Y-60229700D01*
X164909474Y-60229700D02*
X164948178Y-60307110D01*
X164948178Y-60307110D02*
X164948178Y-60423224D01*
X164948178Y-60423224D02*
X164909474Y-60500633D01*
X164909474Y-60500633D02*
X164832064Y-60539338D01*
X164832064Y-60539338D02*
X164406312Y-60539338D01*
X164832064Y-60539338D02*
X164909474Y-60578043D01*
X164909474Y-60578043D02*
X164948178Y-60655452D01*
X164948178Y-60655452D02*
X164948178Y-60771567D01*
X164948178Y-60771567D02*
X164909474Y-60848976D01*
X164909474Y-60848976D02*
X164832064Y-60887681D01*
X164832064Y-60887681D02*
X164406312Y-60887681D01*
X163221612Y-43088957D02*
X164034412Y-43088957D01*
X164034412Y-43630824D02*
X164034412Y-43785643D01*
X164034412Y-43785643D02*
X163995707Y-43863053D01*
X163995707Y-43863053D02*
X163918297Y-43940462D01*
X163918297Y-43940462D02*
X163763478Y-43979167D01*
X163763478Y-43979167D02*
X163492545Y-43979167D01*
X163492545Y-43979167D02*
X163337726Y-43940462D01*
X163337726Y-43940462D02*
X163260317Y-43863053D01*
X163260317Y-43863053D02*
X163221612Y-43785643D01*
X163221612Y-43785643D02*
X163221612Y-43630824D01*
X163221612Y-43630824D02*
X163260317Y-43553415D01*
X163260317Y-43553415D02*
X163337726Y-43476005D01*
X163337726Y-43476005D02*
X163492545Y-43437301D01*
X163492545Y-43437301D02*
X163763478Y-43437301D01*
X163763478Y-43437301D02*
X163918297Y-43476005D01*
X163918297Y-43476005D02*
X163995707Y-43553415D01*
X163995707Y-43553415D02*
X164034412Y-43630824D01*
X163221612Y-44753263D02*
X163221612Y-44288806D01*
X163221612Y-44521034D02*
X164034412Y-44521034D01*
X164034412Y-44521034D02*
X163918297Y-44443625D01*
X163918297Y-44443625D02*
X163840888Y-44366215D01*
X163840888Y-44366215D02*
X163802183Y-44288806D01*
X171534512Y-41949748D02*
X171534512Y-42452910D01*
X171534512Y-42452910D02*
X171224874Y-42181976D01*
X171224874Y-42181976D02*
X171224874Y-42298091D01*
X171224874Y-42298091D02*
X171186169Y-42375500D01*
X171186169Y-42375500D02*
X171147464Y-42414205D01*
X171147464Y-42414205D02*
X171070055Y-42452910D01*
X171070055Y-42452910D02*
X170876531Y-42452910D01*
X170876531Y-42452910D02*
X170799121Y-42414205D01*
X170799121Y-42414205D02*
X170760417Y-42375500D01*
X170760417Y-42375500D02*
X170721712Y-42298091D01*
X170721712Y-42298091D02*
X170721712Y-42065862D01*
X170721712Y-42065862D02*
X170760417Y-41988453D01*
X170760417Y-41988453D02*
X170799121Y-41949748D01*
X171534512Y-42685138D02*
X170721712Y-42956071D01*
X170721712Y-42956071D02*
X171534512Y-43227005D01*
X171534512Y-43420529D02*
X171534512Y-43923691D01*
X171534512Y-43923691D02*
X171224874Y-43652757D01*
X171224874Y-43652757D02*
X171224874Y-43768872D01*
X171224874Y-43768872D02*
X171186169Y-43846281D01*
X171186169Y-43846281D02*
X171147464Y-43884986D01*
X171147464Y-43884986D02*
X171070055Y-43923691D01*
X171070055Y-43923691D02*
X170876531Y-43923691D01*
X170876531Y-43923691D02*
X170799121Y-43884986D01*
X170799121Y-43884986D02*
X170760417Y-43846281D01*
X170760417Y-43846281D02*
X170721712Y-43768872D01*
X170721712Y-43768872D02*
X170721712Y-43536643D01*
X170721712Y-43536643D02*
X170760417Y-43459234D01*
X170760417Y-43459234D02*
X170799121Y-43420529D01*
X163121812Y-75327057D02*
X163934612Y-75327057D01*
X163934612Y-75868924D02*
X163934612Y-76023743D01*
X163934612Y-76023743D02*
X163895907Y-76101153D01*
X163895907Y-76101153D02*
X163818497Y-76178562D01*
X163818497Y-76178562D02*
X163663678Y-76217267D01*
X163663678Y-76217267D02*
X163392745Y-76217267D01*
X163392745Y-76217267D02*
X163237926Y-76178562D01*
X163237926Y-76178562D02*
X163160517Y-76101153D01*
X163160517Y-76101153D02*
X163121812Y-76023743D01*
X163121812Y-76023743D02*
X163121812Y-75868924D01*
X163121812Y-75868924D02*
X163160517Y-75791515D01*
X163160517Y-75791515D02*
X163237926Y-75714105D01*
X163237926Y-75714105D02*
X163392745Y-75675401D01*
X163392745Y-75675401D02*
X163663678Y-75675401D01*
X163663678Y-75675401D02*
X163818497Y-75714105D01*
X163818497Y-75714105D02*
X163895907Y-75791515D01*
X163895907Y-75791515D02*
X163934612Y-75868924D01*
X163934612Y-76952658D02*
X163934612Y-76565610D01*
X163934612Y-76565610D02*
X163547564Y-76526906D01*
X163547564Y-76526906D02*
X163586269Y-76565610D01*
X163586269Y-76565610D02*
X163624974Y-76643020D01*
X163624974Y-76643020D02*
X163624974Y-76836544D01*
X163624974Y-76836544D02*
X163586269Y-76913953D01*
X163586269Y-76913953D02*
X163547564Y-76952658D01*
X163547564Y-76952658D02*
X163470155Y-76991363D01*
X163470155Y-76991363D02*
X163276631Y-76991363D01*
X163276631Y-76991363D02*
X163199221Y-76952658D01*
X163199221Y-76952658D02*
X163160517Y-76913953D01*
X163160517Y-76913953D02*
X163121812Y-76836544D01*
X163121812Y-76836544D02*
X163121812Y-76643020D01*
X163121812Y-76643020D02*
X163160517Y-76565610D01*
X163160517Y-76565610D02*
X163199221Y-76526906D01*
X176496107Y-75753410D02*
X176534812Y-75676000D01*
X176534812Y-75676000D02*
X176534812Y-75559886D01*
X176534812Y-75559886D02*
X176496107Y-75443772D01*
X176496107Y-75443772D02*
X176418697Y-75366362D01*
X176418697Y-75366362D02*
X176341288Y-75327657D01*
X176341288Y-75327657D02*
X176186469Y-75288953D01*
X176186469Y-75288953D02*
X176070355Y-75288953D01*
X176070355Y-75288953D02*
X175915536Y-75327657D01*
X175915536Y-75327657D02*
X175838126Y-75366362D01*
X175838126Y-75366362D02*
X175760717Y-75443772D01*
X175760717Y-75443772D02*
X175722012Y-75559886D01*
X175722012Y-75559886D02*
X175722012Y-75637295D01*
X175722012Y-75637295D02*
X175760717Y-75753410D01*
X175760717Y-75753410D02*
X175799421Y-75792114D01*
X175799421Y-75792114D02*
X176070355Y-75792114D01*
X176070355Y-75792114D02*
X176070355Y-75637295D01*
X175722012Y-76140457D02*
X176534812Y-76140457D01*
X176534812Y-76140457D02*
X175722012Y-76604914D01*
X175722012Y-76604914D02*
X176534812Y-76604914D01*
X175722012Y-76991962D02*
X176534812Y-76991962D01*
X176534812Y-76991962D02*
X176534812Y-77185486D01*
X176534812Y-77185486D02*
X176496107Y-77301600D01*
X176496107Y-77301600D02*
X176418697Y-77379010D01*
X176418697Y-77379010D02*
X176341288Y-77417715D01*
X176341288Y-77417715D02*
X176186469Y-77456419D01*
X176186469Y-77456419D02*
X176070355Y-77456419D01*
X176070355Y-77456419D02*
X175915536Y-77417715D01*
X175915536Y-77417715D02*
X175838126Y-77379010D01*
X175838126Y-77379010D02*
X175760717Y-77301600D01*
X175760717Y-77301600D02*
X175722012Y-77185486D01*
X175722012Y-77185486D02*
X175722012Y-76991962D01*
D10*
X134008333Y-42119580D02*
X133960714Y-42167200D01*
X133960714Y-42167200D02*
X133817857Y-42214819D01*
X133817857Y-42214819D02*
X133722619Y-42214819D01*
X133722619Y-42214819D02*
X133579762Y-42167200D01*
X133579762Y-42167200D02*
X133484524Y-42071961D01*
X133484524Y-42071961D02*
X133436905Y-41976723D01*
X133436905Y-41976723D02*
X133389286Y-41786247D01*
X133389286Y-41786247D02*
X133389286Y-41643390D01*
X133389286Y-41643390D02*
X133436905Y-41452914D01*
X133436905Y-41452914D02*
X133484524Y-41357676D01*
X133484524Y-41357676D02*
X133579762Y-41262438D01*
X133579762Y-41262438D02*
X133722619Y-41214819D01*
X133722619Y-41214819D02*
X133817857Y-41214819D01*
X133817857Y-41214819D02*
X133960714Y-41262438D01*
X133960714Y-41262438D02*
X134008333Y-41310057D01*
X134341667Y-41214819D02*
X134960714Y-41214819D01*
X134960714Y-41214819D02*
X134627381Y-41595771D01*
X134627381Y-41595771D02*
X134770238Y-41595771D01*
X134770238Y-41595771D02*
X134865476Y-41643390D01*
X134865476Y-41643390D02*
X134913095Y-41691009D01*
X134913095Y-41691009D02*
X134960714Y-41786247D01*
X134960714Y-41786247D02*
X134960714Y-42024342D01*
X134960714Y-42024342D02*
X134913095Y-42119580D01*
X134913095Y-42119580D02*
X134865476Y-42167200D01*
X134865476Y-42167200D02*
X134770238Y-42214819D01*
X134770238Y-42214819D02*
X134484524Y-42214819D01*
X134484524Y-42214819D02*
X134389286Y-42167200D01*
X134389286Y-42167200D02*
X134341667Y-42119580D01*
X113864819Y-93193333D02*
X114579104Y-93193333D01*
X114579104Y-93193333D02*
X114721961Y-93240952D01*
X114721961Y-93240952D02*
X114817200Y-93336190D01*
X114817200Y-93336190D02*
X114864819Y-93479047D01*
X114864819Y-93479047D02*
X114864819Y-93574285D01*
X114864819Y-92193333D02*
X114864819Y-92764761D01*
X114864819Y-92479047D02*
X113864819Y-92479047D01*
X113864819Y-92479047D02*
X114007676Y-92574285D01*
X114007676Y-92574285D02*
X114102914Y-92669523D01*
X114102914Y-92669523D02*
X114150533Y-92764761D01*
X108862295Y-71309523D02*
X109509914Y-71309523D01*
X109509914Y-71309523D02*
X109586104Y-71271428D01*
X109586104Y-71271428D02*
X109624200Y-71233333D01*
X109624200Y-71233333D02*
X109662295Y-71157142D01*
X109662295Y-71157142D02*
X109662295Y-71004761D01*
X109662295Y-71004761D02*
X109624200Y-70928571D01*
X109624200Y-70928571D02*
X109586104Y-70890476D01*
X109586104Y-70890476D02*
X109509914Y-70852380D01*
X109509914Y-70852380D02*
X108862295Y-70852380D01*
X109662295Y-70052381D02*
X109662295Y-70509524D01*
X109662295Y-70280952D02*
X108862295Y-70280952D01*
X108862295Y-70280952D02*
X108976580Y-70357143D01*
X108976580Y-70357143D02*
X109052771Y-70433333D01*
X109052771Y-70433333D02*
X109090866Y-70509524D01*
D12*
X113709800Y-73943734D02*
X113757419Y-73800877D01*
X113757419Y-73800877D02*
X113757419Y-73562782D01*
X113757419Y-73562782D02*
X113709800Y-73467544D01*
X113709800Y-73467544D02*
X113662180Y-73419925D01*
X113662180Y-73419925D02*
X113566942Y-73372306D01*
X113566942Y-73372306D02*
X113471704Y-73372306D01*
X113471704Y-73372306D02*
X113376466Y-73419925D01*
X113376466Y-73419925D02*
X113328847Y-73467544D01*
X113328847Y-73467544D02*
X113281228Y-73562782D01*
X113281228Y-73562782D02*
X113233609Y-73753258D01*
X113233609Y-73753258D02*
X113185990Y-73848496D01*
X113185990Y-73848496D02*
X113138371Y-73896115D01*
X113138371Y-73896115D02*
X113043133Y-73943734D01*
X113043133Y-73943734D02*
X112947895Y-73943734D01*
X112947895Y-73943734D02*
X112852657Y-73896115D01*
X112852657Y-73896115D02*
X112805038Y-73848496D01*
X112805038Y-73848496D02*
X112757419Y-73753258D01*
X112757419Y-73753258D02*
X112757419Y-73515163D01*
X112757419Y-73515163D02*
X112805038Y-73372306D01*
X113757419Y-72943734D02*
X112757419Y-72943734D01*
X112757419Y-72943734D02*
X112757419Y-72705639D01*
X112757419Y-72705639D02*
X112805038Y-72562782D01*
X112805038Y-72562782D02*
X112900276Y-72467544D01*
X112900276Y-72467544D02*
X112995514Y-72419925D01*
X112995514Y-72419925D02*
X113185990Y-72372306D01*
X113185990Y-72372306D02*
X113328847Y-72372306D01*
X113328847Y-72372306D02*
X113519323Y-72419925D01*
X113519323Y-72419925D02*
X113614561Y-72467544D01*
X113614561Y-72467544D02*
X113709800Y-72562782D01*
X113709800Y-72562782D02*
X113757419Y-72705639D01*
X113757419Y-72705639D02*
X113757419Y-72943734D01*
X113471704Y-71991353D02*
X113471704Y-71515163D01*
X113757419Y-72086591D02*
X112757419Y-71753258D01*
X112757419Y-71753258D02*
X113757419Y-71419925D01*
X112757419Y-83838972D02*
X113757419Y-83505639D01*
X113757419Y-83505639D02*
X112757419Y-83172306D01*
X113757419Y-82838972D02*
X112757419Y-82838972D01*
X112757419Y-82838972D02*
X112757419Y-82600877D01*
X112757419Y-82600877D02*
X112805038Y-82458020D01*
X112805038Y-82458020D02*
X112900276Y-82362782D01*
X112900276Y-82362782D02*
X112995514Y-82315163D01*
X112995514Y-82315163D02*
X113185990Y-82267544D01*
X113185990Y-82267544D02*
X113328847Y-82267544D01*
X113328847Y-82267544D02*
X113519323Y-82315163D01*
X113519323Y-82315163D02*
X113614561Y-82362782D01*
X113614561Y-82362782D02*
X113709800Y-82458020D01*
X113709800Y-82458020D02*
X113757419Y-82600877D01*
X113757419Y-82600877D02*
X113757419Y-82838972D01*
X113757419Y-81838972D02*
X112757419Y-81838972D01*
X112757419Y-81838972D02*
X112757419Y-81600877D01*
X112757419Y-81600877D02*
X112805038Y-81458020D01*
X112805038Y-81458020D02*
X112900276Y-81362782D01*
X112900276Y-81362782D02*
X112995514Y-81315163D01*
X112995514Y-81315163D02*
X113185990Y-81267544D01*
X113185990Y-81267544D02*
X113328847Y-81267544D01*
X113328847Y-81267544D02*
X113519323Y-81315163D01*
X113519323Y-81315163D02*
X113614561Y-81362782D01*
X113614561Y-81362782D02*
X113709800Y-81458020D01*
X113709800Y-81458020D02*
X113757419Y-81600877D01*
X113757419Y-81600877D02*
X113757419Y-81838972D01*
X112805038Y-79872306D02*
X112757419Y-79967544D01*
X112757419Y-79967544D02*
X112757419Y-80110401D01*
X112757419Y-80110401D02*
X112805038Y-80253258D01*
X112805038Y-80253258D02*
X112900276Y-80348496D01*
X112900276Y-80348496D02*
X112995514Y-80396115D01*
X112995514Y-80396115D02*
X113185990Y-80443734D01*
X113185990Y-80443734D02*
X113328847Y-80443734D01*
X113328847Y-80443734D02*
X113519323Y-80396115D01*
X113519323Y-80396115D02*
X113614561Y-80348496D01*
X113614561Y-80348496D02*
X113709800Y-80253258D01*
X113709800Y-80253258D02*
X113757419Y-80110401D01*
X113757419Y-80110401D02*
X113757419Y-80015163D01*
X113757419Y-80015163D02*
X113709800Y-79872306D01*
X113709800Y-79872306D02*
X113662180Y-79824687D01*
X113662180Y-79824687D02*
X113328847Y-79824687D01*
X113328847Y-79824687D02*
X113328847Y-80015163D01*
X113757419Y-79396115D02*
X112757419Y-79396115D01*
X112757419Y-79396115D02*
X113757419Y-78824687D01*
X113757419Y-78824687D02*
X112757419Y-78824687D01*
X113757419Y-78348496D02*
X112757419Y-78348496D01*
X112757419Y-78348496D02*
X112757419Y-78110401D01*
X112757419Y-78110401D02*
X112805038Y-77967544D01*
X112805038Y-77967544D02*
X112900276Y-77872306D01*
X112900276Y-77872306D02*
X112995514Y-77824687D01*
X112995514Y-77824687D02*
X113185990Y-77777068D01*
X113185990Y-77777068D02*
X113328847Y-77777068D01*
X113328847Y-77777068D02*
X113519323Y-77824687D01*
X113519323Y-77824687D02*
X113614561Y-77872306D01*
X113614561Y-77872306D02*
X113709800Y-77967544D01*
X113709800Y-77967544D02*
X113757419Y-78110401D01*
X113757419Y-78110401D02*
X113757419Y-78348496D01*
X113709800Y-77143734D02*
X113757419Y-77000877D01*
X113757419Y-77000877D02*
X113757419Y-76762782D01*
X113757419Y-76762782D02*
X113709800Y-76667544D01*
X113709800Y-76667544D02*
X113662180Y-76619925D01*
X113662180Y-76619925D02*
X113566942Y-76572306D01*
X113566942Y-76572306D02*
X113471704Y-76572306D01*
X113471704Y-76572306D02*
X113376466Y-76619925D01*
X113376466Y-76619925D02*
X113328847Y-76667544D01*
X113328847Y-76667544D02*
X113281228Y-76762782D01*
X113281228Y-76762782D02*
X113233609Y-76953258D01*
X113233609Y-76953258D02*
X113185990Y-77048496D01*
X113185990Y-77048496D02*
X113138371Y-77096115D01*
X113138371Y-77096115D02*
X113043133Y-77143734D01*
X113043133Y-77143734D02*
X112947895Y-77143734D01*
X112947895Y-77143734D02*
X112852657Y-77096115D01*
X112852657Y-77096115D02*
X112805038Y-77048496D01*
X112805038Y-77048496D02*
X112757419Y-76953258D01*
X112757419Y-76953258D02*
X112757419Y-76715163D01*
X112757419Y-76715163D02*
X112805038Y-76572306D01*
X113662180Y-75572306D02*
X113709800Y-75619925D01*
X113709800Y-75619925D02*
X113757419Y-75762782D01*
X113757419Y-75762782D02*
X113757419Y-75858020D01*
X113757419Y-75858020D02*
X113709800Y-76000877D01*
X113709800Y-76000877D02*
X113614561Y-76096115D01*
X113614561Y-76096115D02*
X113519323Y-76143734D01*
X113519323Y-76143734D02*
X113328847Y-76191353D01*
X113328847Y-76191353D02*
X113185990Y-76191353D01*
X113185990Y-76191353D02*
X112995514Y-76143734D01*
X112995514Y-76143734D02*
X112900276Y-76096115D01*
X112900276Y-76096115D02*
X112805038Y-76000877D01*
X112805038Y-76000877D02*
X112757419Y-75858020D01*
X112757419Y-75858020D02*
X112757419Y-75762782D01*
X112757419Y-75762782D02*
X112805038Y-75619925D01*
X112805038Y-75619925D02*
X112852657Y-75572306D01*
X113757419Y-74667544D02*
X113757419Y-75143734D01*
X113757419Y-75143734D02*
X112757419Y-75143734D01*
D10*
X120870833Y-25539580D02*
X120823214Y-25587200D01*
X120823214Y-25587200D02*
X120680357Y-25634819D01*
X120680357Y-25634819D02*
X120585119Y-25634819D01*
X120585119Y-25634819D02*
X120442262Y-25587200D01*
X120442262Y-25587200D02*
X120347024Y-25491961D01*
X120347024Y-25491961D02*
X120299405Y-25396723D01*
X120299405Y-25396723D02*
X120251786Y-25206247D01*
X120251786Y-25206247D02*
X120251786Y-25063390D01*
X120251786Y-25063390D02*
X120299405Y-24872914D01*
X120299405Y-24872914D02*
X120347024Y-24777676D01*
X120347024Y-24777676D02*
X120442262Y-24682438D01*
X120442262Y-24682438D02*
X120585119Y-24634819D01*
X120585119Y-24634819D02*
X120680357Y-24634819D01*
X120680357Y-24634819D02*
X120823214Y-24682438D01*
X120823214Y-24682438D02*
X120870833Y-24730057D01*
X121727976Y-24968152D02*
X121727976Y-25634819D01*
X121489881Y-24587200D02*
X121251786Y-25301485D01*
X121251786Y-25301485D02*
X121870833Y-25301485D01*
X172333333Y-39179580D02*
X172285714Y-39227200D01*
X172285714Y-39227200D02*
X172142857Y-39274819D01*
X172142857Y-39274819D02*
X172047619Y-39274819D01*
X172047619Y-39274819D02*
X171904762Y-39227200D01*
X171904762Y-39227200D02*
X171809524Y-39131961D01*
X171809524Y-39131961D02*
X171761905Y-39036723D01*
X171761905Y-39036723D02*
X171714286Y-38846247D01*
X171714286Y-38846247D02*
X171714286Y-38703390D01*
X171714286Y-38703390D02*
X171761905Y-38512914D01*
X171761905Y-38512914D02*
X171809524Y-38417676D01*
X171809524Y-38417676D02*
X171904762Y-38322438D01*
X171904762Y-38322438D02*
X172047619Y-38274819D01*
X172047619Y-38274819D02*
X172142857Y-38274819D01*
X172142857Y-38274819D02*
X172285714Y-38322438D01*
X172285714Y-38322438D02*
X172333333Y-38370057D01*
X173285714Y-39274819D02*
X172714286Y-39274819D01*
X173000000Y-39274819D02*
X173000000Y-38274819D01*
X173000000Y-38274819D02*
X172904762Y-38417676D01*
X172904762Y-38417676D02*
X172809524Y-38512914D01*
X172809524Y-38512914D02*
X172714286Y-38560533D01*
X113709523Y-25702438D02*
X113614285Y-25654819D01*
X113614285Y-25654819D02*
X113471428Y-25654819D01*
X113471428Y-25654819D02*
X113328571Y-25702438D01*
X113328571Y-25702438D02*
X113233333Y-25797676D01*
X113233333Y-25797676D02*
X113185714Y-25892914D01*
X113185714Y-25892914D02*
X113138095Y-26083390D01*
X113138095Y-26083390D02*
X113138095Y-26226247D01*
X113138095Y-26226247D02*
X113185714Y-26416723D01*
X113185714Y-26416723D02*
X113233333Y-26511961D01*
X113233333Y-26511961D02*
X113328571Y-26607200D01*
X113328571Y-26607200D02*
X113471428Y-26654819D01*
X113471428Y-26654819D02*
X113566666Y-26654819D01*
X113566666Y-26654819D02*
X113709523Y-26607200D01*
X113709523Y-26607200D02*
X113757142Y-26559580D01*
X113757142Y-26559580D02*
X113757142Y-26226247D01*
X113757142Y-26226247D02*
X113566666Y-26226247D01*
X114185714Y-26654819D02*
X114185714Y-25654819D01*
X114185714Y-25654819D02*
X114566666Y-25654819D01*
X114566666Y-25654819D02*
X114661904Y-25702438D01*
X114661904Y-25702438D02*
X114709523Y-25750057D01*
X114709523Y-25750057D02*
X114757142Y-25845295D01*
X114757142Y-25845295D02*
X114757142Y-25988152D01*
X114757142Y-25988152D02*
X114709523Y-26083390D01*
X114709523Y-26083390D02*
X114661904Y-26131009D01*
X114661904Y-26131009D02*
X114566666Y-26178628D01*
X114566666Y-26178628D02*
X114185714Y-26178628D01*
X115138095Y-26607200D02*
X115280952Y-26654819D01*
X115280952Y-26654819D02*
X115519047Y-26654819D01*
X115519047Y-26654819D02*
X115614285Y-26607200D01*
X115614285Y-26607200D02*
X115661904Y-26559580D01*
X115661904Y-26559580D02*
X115709523Y-26464342D01*
X115709523Y-26464342D02*
X115709523Y-26369104D01*
X115709523Y-26369104D02*
X115661904Y-26273866D01*
X115661904Y-26273866D02*
X115614285Y-26226247D01*
X115614285Y-26226247D02*
X115519047Y-26178628D01*
X115519047Y-26178628D02*
X115328571Y-26131009D01*
X115328571Y-26131009D02*
X115233333Y-26083390D01*
X115233333Y-26083390D02*
X115185714Y-26035771D01*
X115185714Y-26035771D02*
X115138095Y-25940533D01*
X115138095Y-25940533D02*
X115138095Y-25845295D01*
X115138095Y-25845295D02*
X115185714Y-25750057D01*
X115185714Y-25750057D02*
X115233333Y-25702438D01*
X115233333Y-25702438D02*
X115328571Y-25654819D01*
X115328571Y-25654819D02*
X115566666Y-25654819D01*
X115566666Y-25654819D02*
X115709523Y-25702438D01*
X116661904Y-26654819D02*
X116090476Y-26654819D01*
X116376190Y-26654819D02*
X116376190Y-25654819D01*
X116376190Y-25654819D02*
X116280952Y-25797676D01*
X116280952Y-25797676D02*
X116185714Y-25892914D01*
X116185714Y-25892914D02*
X116090476Y-25940533D01*
X105359580Y-80666666D02*
X105407200Y-80714285D01*
X105407200Y-80714285D02*
X105454819Y-80857142D01*
X105454819Y-80857142D02*
X105454819Y-80952380D01*
X105454819Y-80952380D02*
X105407200Y-81095237D01*
X105407200Y-81095237D02*
X105311961Y-81190475D01*
X105311961Y-81190475D02*
X105216723Y-81238094D01*
X105216723Y-81238094D02*
X105026247Y-81285713D01*
X105026247Y-81285713D02*
X104883390Y-81285713D01*
X104883390Y-81285713D02*
X104692914Y-81238094D01*
X104692914Y-81238094D02*
X104597676Y-81190475D01*
X104597676Y-81190475D02*
X104502438Y-81095237D01*
X104502438Y-81095237D02*
X104454819Y-80952380D01*
X104454819Y-80952380D02*
X104454819Y-80857142D01*
X104454819Y-80857142D02*
X104502438Y-80714285D01*
X104502438Y-80714285D02*
X104550057Y-80666666D01*
X104550057Y-80285713D02*
X104502438Y-80238094D01*
X104502438Y-80238094D02*
X104454819Y-80142856D01*
X104454819Y-80142856D02*
X104454819Y-79904761D01*
X104454819Y-79904761D02*
X104502438Y-79809523D01*
X104502438Y-79809523D02*
X104550057Y-79761904D01*
X104550057Y-79761904D02*
X104645295Y-79714285D01*
X104645295Y-79714285D02*
X104740533Y-79714285D01*
X104740533Y-79714285D02*
X104883390Y-79761904D01*
X104883390Y-79761904D02*
X105454819Y-80333332D01*
X105454819Y-80333332D02*
X105454819Y-79714285D01*
X136005095Y-45046019D02*
X136005095Y-45855542D01*
X136005095Y-45855542D02*
X136052714Y-45950780D01*
X136052714Y-45950780D02*
X136100333Y-45998400D01*
X136100333Y-45998400D02*
X136195571Y-46046019D01*
X136195571Y-46046019D02*
X136386047Y-46046019D01*
X136386047Y-46046019D02*
X136481285Y-45998400D01*
X136481285Y-45998400D02*
X136528904Y-45950780D01*
X136528904Y-45950780D02*
X136576523Y-45855542D01*
X136576523Y-45855542D02*
X136576523Y-45046019D01*
X137005095Y-45141257D02*
X137052714Y-45093638D01*
X137052714Y-45093638D02*
X137147952Y-45046019D01*
X137147952Y-45046019D02*
X137386047Y-45046019D01*
X137386047Y-45046019D02*
X137481285Y-45093638D01*
X137481285Y-45093638D02*
X137528904Y-45141257D01*
X137528904Y-45141257D02*
X137576523Y-45236495D01*
X137576523Y-45236495D02*
X137576523Y-45331733D01*
X137576523Y-45331733D02*
X137528904Y-45474590D01*
X137528904Y-45474590D02*
X136957476Y-46046019D01*
X136957476Y-46046019D02*
X137576523Y-46046019D01*
X143454819Y-25161904D02*
X144264342Y-25161904D01*
X144264342Y-25161904D02*
X144359580Y-25114285D01*
X144359580Y-25114285D02*
X144407200Y-25066666D01*
X144407200Y-25066666D02*
X144454819Y-24971428D01*
X144454819Y-24971428D02*
X144454819Y-24780952D01*
X144454819Y-24780952D02*
X144407200Y-24685714D01*
X144407200Y-24685714D02*
X144359580Y-24638095D01*
X144359580Y-24638095D02*
X144264342Y-24590476D01*
X144264342Y-24590476D02*
X143454819Y-24590476D01*
X143454819Y-24209523D02*
X143454819Y-23590476D01*
X143454819Y-23590476D02*
X143835771Y-23923809D01*
X143835771Y-23923809D02*
X143835771Y-23780952D01*
X143835771Y-23780952D02*
X143883390Y-23685714D01*
X143883390Y-23685714D02*
X143931009Y-23638095D01*
X143931009Y-23638095D02*
X144026247Y-23590476D01*
X144026247Y-23590476D02*
X144264342Y-23590476D01*
X144264342Y-23590476D02*
X144359580Y-23638095D01*
X144359580Y-23638095D02*
X144407200Y-23685714D01*
X144407200Y-23685714D02*
X144454819Y-23780952D01*
X144454819Y-23780952D02*
X144454819Y-24066666D01*
X144454819Y-24066666D02*
X144407200Y-24161904D01*
X144407200Y-24161904D02*
X144359580Y-24209523D01*
X143979580Y-18829166D02*
X144027200Y-18876785D01*
X144027200Y-18876785D02*
X144074819Y-19019642D01*
X144074819Y-19019642D02*
X144074819Y-19114880D01*
X144074819Y-19114880D02*
X144027200Y-19257737D01*
X144027200Y-19257737D02*
X143931961Y-19352975D01*
X143931961Y-19352975D02*
X143836723Y-19400594D01*
X143836723Y-19400594D02*
X143646247Y-19448213D01*
X143646247Y-19448213D02*
X143503390Y-19448213D01*
X143503390Y-19448213D02*
X143312914Y-19400594D01*
X143312914Y-19400594D02*
X143217676Y-19352975D01*
X143217676Y-19352975D02*
X143122438Y-19257737D01*
X143122438Y-19257737D02*
X143074819Y-19114880D01*
X143074819Y-19114880D02*
X143074819Y-19019642D01*
X143074819Y-19019642D02*
X143122438Y-18876785D01*
X143122438Y-18876785D02*
X143170057Y-18829166D01*
X143074819Y-17924404D02*
X143074819Y-18400594D01*
X143074819Y-18400594D02*
X143551009Y-18448213D01*
X143551009Y-18448213D02*
X143503390Y-18400594D01*
X143503390Y-18400594D02*
X143455771Y-18305356D01*
X143455771Y-18305356D02*
X143455771Y-18067261D01*
X143455771Y-18067261D02*
X143503390Y-17972023D01*
X143503390Y-17972023D02*
X143551009Y-17924404D01*
X143551009Y-17924404D02*
X143646247Y-17876785D01*
X143646247Y-17876785D02*
X143884342Y-17876785D01*
X143884342Y-17876785D02*
X143979580Y-17924404D01*
X143979580Y-17924404D02*
X144027200Y-17972023D01*
X144027200Y-17972023D02*
X144074819Y-18067261D01*
X144074819Y-18067261D02*
X144074819Y-18305356D01*
X144074819Y-18305356D02*
X144027200Y-18400594D01*
X144027200Y-18400594D02*
X143979580Y-18448213D01*
D13*
%TO.C,U4*%
X160835750Y-53164550D02*
X160835750Y-66100750D01*
X160835750Y-66100750D02*
X176035050Y-66100750D01*
X172534950Y-53164550D02*
X160835750Y-53164550D01*
X172534950Y-57264050D02*
X172534950Y-53164550D01*
X176035050Y-57264050D02*
X172534950Y-57264050D01*
X176035050Y-66100750D02*
X176035050Y-57264050D01*
G36*
X159100150Y-57150050D02*
G01*
X158100150Y-57150050D01*
X158100150Y-58650150D01*
X159100150Y-58650150D01*
X159100150Y-57150050D01*
G37*
G36*
X159100150Y-60849850D02*
G01*
X158100150Y-60849850D01*
X158100150Y-62349950D01*
X159100150Y-62349950D01*
X159100150Y-60849850D01*
G37*
D14*
X159350050Y-56399950D02*
X157849950Y-56399950D01*
X157849950Y-59399950D01*
X159350050Y-59399950D01*
X159350050Y-56399950D01*
X159350050Y-60099950D02*
X157849950Y-60099950D01*
X157849950Y-63099950D01*
X159350050Y-63099950D01*
X159350050Y-60099950D01*
X176134450Y-53014450D02*
X173134450Y-53014450D01*
X173134450Y-56514550D01*
X176134450Y-56514550D01*
X176134450Y-53014450D01*
D13*
X176949950Y-52200050D02*
X159949950Y-52200050D01*
X159949950Y-67200050D01*
X176949950Y-67200050D01*
X176949950Y-52200050D01*
D14*
X177750050Y-45500050D02*
X157249950Y-45500050D01*
X157249950Y-73499950D01*
X177750050Y-73499950D01*
X177750050Y-45500050D01*
D15*
X175384650Y-54814250D02*
G75*
G02*
X173884450Y-54814250I-750100J0D01*
G01*
X173884450Y-54814250D02*
G75*
G02*
X175384650Y-54814250I750100J0D01*
G01*
D16*
%TO.C,C3*%
X132985000Y-46548752D02*
X132985000Y-46026248D01*
X131515000Y-46548752D02*
X131515000Y-46026248D01*
%TO.C,J1*%
X115850000Y-90260000D02*
X117180000Y-90260000D01*
X115850000Y-91590000D02*
X115850000Y-90260000D01*
X115850000Y-92860000D02*
X118450000Y-92860000D01*
X115850000Y-95460000D02*
X115850000Y-92860000D01*
X115850000Y-95460000D02*
X166770000Y-95460000D01*
X118450000Y-90260000D02*
X166770000Y-90260000D01*
X118450000Y-92860000D02*
X118450000Y-90260000D01*
X166770000Y-95460000D02*
X166770000Y-90260000D01*
D17*
%TO.C,U1*%
X110245000Y-69745000D02*
X126755000Y-69745000D01*
X110245000Y-86255000D02*
X110245000Y-69745000D01*
X126755000Y-69745000D02*
X126755000Y-86255000D01*
X126755000Y-86255000D02*
X110245000Y-86255000D01*
X120838240Y-71650000D02*
G75*
G02*
X117431760Y-71650000I-1703240J0D01*
G01*
X117431760Y-71650000D02*
G75*
G02*
X120838240Y-71650000I1703240J0D01*
G01*
X120817130Y-84350000D02*
G75*
G02*
X117452870Y-84350000I-1682130J0D01*
G01*
X117452870Y-84350000D02*
G75*
G02*
X120817130Y-84350000I1682130J0D01*
G01*
D16*
%TO.C,C4*%
X121298752Y-22765000D02*
X120776248Y-22765000D01*
X121298752Y-24235000D02*
X120776248Y-24235000D01*
%TO.C,C1*%
X172238748Y-39765000D02*
X172761252Y-39765000D01*
X172238748Y-41235000D02*
X172761252Y-41235000D01*
%TO.C,GPS1*%
X109050000Y-28670000D02*
X109050000Y-31330000D01*
X116730000Y-28670000D02*
X109050000Y-28670000D01*
X116730000Y-28670000D02*
X116730000Y-31330000D01*
X116730000Y-31330000D02*
X109050000Y-31330000D01*
X119330000Y-30000000D02*
X119330000Y-31330000D01*
X119330000Y-31330000D02*
X118000000Y-31330000D01*
D12*
X126600000Y-27300000D02*
X101600000Y-27300000D01*
X101600000Y-62300000D01*
X126600000Y-62300000D01*
X126600000Y-27300000D01*
D16*
%TO.C,C2*%
X107765000Y-80761252D02*
X107765000Y-80238748D01*
X109235000Y-80761252D02*
X109235000Y-80238748D01*
D18*
%TO.C,U2*%
X133250000Y-46476600D02*
X133250000Y-68476600D01*
X133250000Y-68476600D02*
X149750000Y-68476600D01*
D19*
X142228000Y-56030600D02*
X142228000Y-60094600D01*
X142228000Y-60094600D02*
X146292000Y-60094600D01*
D20*
X142863000Y-59586600D02*
X142990000Y-58951600D01*
X142863000Y-59586600D02*
X143498000Y-59459600D01*
X144133000Y-56411600D02*
X143752000Y-56919600D01*
X144133000Y-58316600D02*
X142863000Y-59586600D01*
X144133000Y-58316600D02*
X144133000Y-56411600D01*
X144133000Y-58316600D02*
X145911000Y-58316600D01*
X144514000Y-56919600D02*
X144133000Y-56411600D01*
X145403000Y-57935600D02*
X145911000Y-58316600D01*
X145911000Y-58316600D02*
X145403000Y-58697600D01*
D19*
X146292000Y-56030600D02*
X142228000Y-56030600D01*
X146292000Y-60094600D02*
X146292000Y-56030600D01*
D18*
X149750000Y-46476600D02*
X133250000Y-46476600D01*
X149750000Y-68476600D02*
X149750000Y-46476600D01*
D20*
X144312603Y-58316600D02*
G75*
G02*
X143953397Y-58316600I-179603J0D01*
G01*
X143953397Y-58316600D02*
G75*
G02*
X144312603Y-58316600I179603J0D01*
G01*
D19*
X148914430Y-49680600D02*
G75*
G02*
X145701570Y-49680600I-1606430J0D01*
G01*
X145701570Y-49680600D02*
G75*
G02*
X148914430Y-49680600I1606430J0D01*
G01*
X148914430Y-66444600D02*
G75*
G02*
X145701570Y-66444600I-1606430J0D01*
G01*
X145701570Y-66444600D02*
G75*
G02*
X148914430Y-66444600I1606430J0D01*
G01*
D16*
%TO.C,U3*%
X147970000Y-19020000D02*
X147970000Y-29240000D01*
X147970000Y-29240000D02*
X150630000Y-29240000D01*
X149300000Y-16420000D02*
X150630000Y-16420000D01*
D12*
X148000000Y-16450000D02*
X163000000Y-16450000D01*
X163000000Y-29250000D01*
X148000000Y-29250000D01*
X148000000Y-16450000D01*
D16*
%TO.C,C5*%
X144565000Y-18923752D02*
X144565000Y-18401248D01*
X146035000Y-18923752D02*
X146035000Y-18401248D01*
%TD*%
D21*
X176350050Y-46999950D03*
X173810050Y-46999950D03*
X171270050Y-46999950D03*
X168730050Y-46999950D03*
X166190050Y-46999950D03*
X163650050Y-46999950D03*
X161110050Y-46999950D03*
X158570050Y-46999950D03*
X158549950Y-71999950D03*
X161089950Y-71999950D03*
X163629950Y-71999950D03*
X166169950Y-71999950D03*
X168709950Y-71999950D03*
X171249950Y-71999950D03*
X173789950Y-71999950D03*
X176329950Y-71999950D03*
X117180000Y-91590000D03*
X117180000Y-94130000D03*
X119720000Y-91590000D03*
X119720000Y-94130000D03*
X122260000Y-91590000D03*
X122260000Y-94130000D03*
X124800000Y-91590000D03*
X124800000Y-94130000D03*
X127340000Y-91590000D03*
X127340000Y-94130000D03*
X129880000Y-91590000D03*
X129880000Y-94130000D03*
X132420000Y-91590000D03*
X132420000Y-94130000D03*
X134960000Y-91590000D03*
X134960000Y-94130000D03*
X137500000Y-91590000D03*
X137500000Y-94130000D03*
X140040000Y-91590000D03*
X140040000Y-94130000D03*
X142580000Y-91590000D03*
X142580000Y-94130000D03*
X145120000Y-91590000D03*
X145120000Y-94130000D03*
X147660000Y-91590000D03*
X147660000Y-94130000D03*
X150200000Y-91590000D03*
X150200000Y-94130000D03*
X152740000Y-91590000D03*
X152740000Y-94130000D03*
X155280000Y-91590000D03*
X155280000Y-94130000D03*
X157820000Y-91590000D03*
X157820000Y-94130000D03*
X160360000Y-91590000D03*
X160360000Y-94130000D03*
X162900000Y-91590000D03*
X162900000Y-94130000D03*
X165440000Y-91590000D03*
X165440000Y-94130000D03*
X111515000Y-74190000D03*
X111515000Y-76730000D03*
X111515000Y-79270000D03*
X111515000Y-81810000D03*
X118000000Y-30000000D03*
X115460000Y-30000000D03*
X112920000Y-30000000D03*
X110380000Y-30000000D03*
X135370000Y-63872600D03*
X135370000Y-51172600D03*
X135370000Y-66412600D03*
X135370000Y-53712600D03*
X135370000Y-56252600D03*
X135370000Y-48632600D03*
X135370000Y-61332600D03*
X135370000Y-58792600D03*
X149300000Y-17750000D03*
X149300000Y-20290000D03*
X149300000Y-22830000D03*
X149300000Y-25370000D03*
X149300000Y-27910000D03*
M02*
