%TF.GenerationSoftware,KiCad,Pcbnew,9.0.5*%
%TF.CreationDate,2025-12-31T07:17:13+07:00*%
%TF.ProjectId,board2v2,626f6172-6432-4763-922e-6b696361645f,rev?*%
%TF.SameCoordinates,Original*%
%TF.FileFunction,Paste,Bot*%
%TF.FilePolarity,Positive*%
%FSLAX46Y46*%
G04 Gerber Fmt 4.6, Leading zero omitted, Abs format (unit mm)*
G04 Created by KiCad (PCBNEW 9.0.5) date 2025-12-31 07:17:13*
%MOMM*%
%LPD*%
G01*
G04 APERTURE LIST*
%ADD10C,0.350000*%
G04 APERTURE END LIST*
D10*
X176350050Y-46999950D03*
X173810050Y-46999950D03*
X171270050Y-46999950D03*
X168730050Y-46999950D03*
X166190050Y-46999950D03*
X163650050Y-46999950D03*
X161110050Y-46999950D03*
X158570050Y-46999950D03*
X158549950Y-71999950D03*
X161089950Y-71999950D03*
X163629950Y-71999950D03*
X166169950Y-71999950D03*
X168709950Y-71999950D03*
X171249950Y-71999950D03*
X173789950Y-71999950D03*
X176329950Y-71999950D03*
X117180000Y-91590000D03*
X117180000Y-94130000D03*
X119720000Y-91590000D03*
X119720000Y-94130000D03*
X122260000Y-91590000D03*
X122260000Y-94130000D03*
X124800000Y-91590000D03*
X124800000Y-94130000D03*
X127340000Y-91590000D03*
X127340000Y-94130000D03*
X129880000Y-91590000D03*
X129880000Y-94130000D03*
X132420000Y-91590000D03*
X132420000Y-94130000D03*
X134960000Y-91590000D03*
X134960000Y-94130000D03*
X137500000Y-91590000D03*
X137500000Y-94130000D03*
X140040000Y-91590000D03*
X140040000Y-94130000D03*
X142580000Y-91590000D03*
X142580000Y-94130000D03*
X145120000Y-91590000D03*
X145120000Y-94130000D03*
X147660000Y-91590000D03*
X147660000Y-94130000D03*
X150200000Y-91590000D03*
X150200000Y-94130000D03*
X152740000Y-91590000D03*
X152740000Y-94130000D03*
X155280000Y-91590000D03*
X155280000Y-94130000D03*
X157820000Y-91590000D03*
X157820000Y-94130000D03*
X160360000Y-91590000D03*
X160360000Y-94130000D03*
X162900000Y-91590000D03*
X162900000Y-94130000D03*
X165440000Y-91590000D03*
X165440000Y-94130000D03*
X111515000Y-74190000D03*
X111515000Y-76730000D03*
X111515000Y-79270000D03*
X111515000Y-81810000D03*
X118000000Y-30000000D03*
X115460000Y-30000000D03*
X112920000Y-30000000D03*
X110380000Y-30000000D03*
X135370000Y-63872600D03*
X135370000Y-51172600D03*
X135370000Y-66412600D03*
X135370000Y-53712600D03*
X135370000Y-56252600D03*
X135370000Y-48632600D03*
X135370000Y-61332600D03*
X135370000Y-58792600D03*
X149300000Y-17750000D03*
X149300000Y-20290000D03*
X149300000Y-22830000D03*
X149300000Y-25370000D03*
X149300000Y-27910000D03*
M02*
