M48
; DRILL file {KiCad 9.0.5} date 2025-12-31T07:17:13+0700
; FORMAT={-:-/ absolute / metric / decimal}
; #@! TF.CreationDate,2025-12-31T07:17:13+07:00
; #@! TF.GenerationSoftware,Kicad,Pcbnew,9.0.5
; #@! TF.FileFunction,Plated,1,2,PTH
FMAT,2
METRIC
; #@! TA.AperFunction,Plated,PTH,ViaDrill
T1C0.610
; #@! TA.AperFunction,Plated,PTH,ComponentDrill
T2C0.914
; #@! TA.AperFunction,Plated,PTH,ComponentDrill
T3C1.000
; #@! TA.AperFunction,Plated,PTH,ComponentDrill
T4C1.067
%
G90
G05
T1
X108.2Y-38.8
X108.9Y-57.0
X111.6Y-96.7
X120.5Y-20.0
X122.2Y-75.8
X126.75Y-52.55
X127.0Y-79.8
X129.7Y-32.5
X138.7Y-42.5
X141.0Y-16.5
X143.8Y-82.7
X143.9Y-87.4
X144.2Y-61.9
X144.5Y-74.5
X149.6Y-38.3
X152.5Y-78.7
X155.5Y-76.0
X159.8Y-31.7
X162.9Y-60.7
X166.7Y-82.6
X168.9Y-90.9
X172.1Y-95.9
X174.6Y-82.3
X179.5Y-59.1
X179.7Y-87.4
T2
X158.55Y-72.0
X158.57Y-47.0
X161.09Y-72.0
X161.11Y-47.0
X163.63Y-72.0
X163.65Y-47.0
X166.17Y-72.0
X166.19Y-47.0
X168.71Y-72.0
X168.73Y-47.0
X171.25Y-72.0
X171.27Y-47.0
X173.79Y-72.0
X173.81Y-47.0
X176.33Y-72.0
X176.35Y-47.0
T3
X110.38Y-30.0
X112.92Y-30.0
X115.46Y-30.0
X117.18Y-91.59
X117.18Y-94.13
X118.0Y-30.0
X119.72Y-91.59
X119.72Y-94.13
X122.26Y-91.59
X122.26Y-94.13
X124.8Y-91.59
X124.8Y-94.13
X127.34Y-91.59
X127.34Y-94.13
X129.88Y-91.59
X129.88Y-94.13
X132.42Y-91.59
X132.42Y-94.13
X134.96Y-91.59
X134.96Y-94.13
X135.37Y-48.633
X135.37Y-51.173
X135.37Y-53.713
X135.37Y-56.253
X135.37Y-58.793
X135.37Y-61.333
X135.37Y-63.873
X135.37Y-66.413
X137.5Y-91.59
X137.5Y-94.13
X140.04Y-91.59
X140.04Y-94.13
X142.58Y-91.59
X142.58Y-94.13
X145.12Y-91.59
X145.12Y-94.13
X147.66Y-91.59
X147.66Y-94.13
X149.3Y-17.75
X149.3Y-20.29
X149.3Y-22.83
X149.3Y-25.37
X149.3Y-27.91
X150.2Y-91.59
X150.2Y-94.13
X152.74Y-91.59
X152.74Y-94.13
X155.28Y-91.59
X155.28Y-94.13
X157.82Y-91.59
X157.82Y-94.13
X160.36Y-91.59
X160.36Y-94.13
X162.9Y-91.59
X162.9Y-94.13
X165.44Y-91.59
X165.44Y-94.13
T4
X111.515Y-74.19
X111.515Y-76.73
X111.515Y-79.27
X111.515Y-81.81
M30
